<svg width="960" height="960" viewBox="0 0 960 960" fill="none" xmlns="http://www.w3.org/2000/svg">
<rect width="960" height="960" fill="#FFF3E3"/>
<path d="M451.919 238.918C477.799 238.023 487.203 243.967 496.211 269.232C523.771 346.621 550.787 424.228 578.347 501.619C596.943 553.767 612.927 606.655 626.783 660.227C634.759 691.027 632.115 697.035 603.099 709.611C554.959 730.451 504.591 741.451 452.187 743.627C437.123 744.259 427.899 739.227 423.615 723.799C393.955 616.683 366.963 508.915 346.195 399.68C340.075 367.454 335.967 334.79 331.343 302.302C328.119 279.734 331.451 274.037 352.183 263.314C355.607 268.353 360.519 268.48 365.427 266.62C389.691 257.39 415.107 252.679 440.255 246.975C445.307 245.786 449.767 244.117 451.919 238.918ZM562.519 547.559C553.275 519.839 545.083 486.539 535.003 453.751C519.959 404.868 502.963 356.656 488.283 307.674C484.879 296.271 477.555 290.902 465.855 293.961C434.943 302.041 404.147 310.552 373.327 318.963C363.783 321.581 357.943 328.666 360.323 337.718C363.751 350.784 364.011 364.244 367.291 377.28C377.767 419.158 385.643 461.671 396.059 503.459C409.539 557.487 419.523 612.395 436.071 665.663C441.127 681.983 451.291 688.111 467.931 683.715C503.179 674.427 538.275 664.575 573.507 655.359C585.935 652.103 589.279 645.267 585.835 633.199C578.183 606.363 571.127 579.363 562.519 547.559ZM590.231 696.791C594.007 694.955 599.839 692.311 605.499 689.287C609.755 686.999 612.871 683.527 609.987 678.519C607.023 673.355 602.531 675.171 598.319 677.095C593.411 679.343 588.471 681.607 583.563 683.855C579.079 685.959 573.519 688.031 575.563 694.263C577.723 700.675 583.239 698.967 590.231 696.791ZM502.067 723.455C506.411 722.279 508.355 721.823 510.227 721.247C515.667 719.527 521.307 717.219 518.931 710.155C516.655 703.311 510.955 706.451 506.335 707.523C501.507 708.619 496.723 709.879 491.947 711.171C488.135 712.203 483.799 713.019 484.375 718.439C485.023 724.515 489.595 724.839 494.295 724.455C497.739 724.163 501.139 723.563 502.067 723.455ZM547.911 711.759C552.035 709.647 556.111 707.871 559.867 705.575C562.711 703.847 563.339 700.907 562.071 697.807C561.031 695.283 558.843 693.635 556.279 694.295C548.203 696.407 539.563 697.751 532.415 701.711C527.243 704.567 527.995 710.755 534.775 712.403C538.875 713.351 543.499 712.031 547.911 711.759ZM452.851 715.711C447.099 717.339 438.683 717.663 441.275 724.739C445.067 735.079 454.799 729.211 462.023 728.431C467.039 727.891 475.219 726.955 471.903 719.291C467.963 710.131 459.015 715.995 452.851 715.711Z" fill="#EA667D"/>
<path d="M353.599 256.465C350.131 243.517 346.155 230.671 343.395 217.567C341.115 206.642 343.719 197.982 357.111 196.061C363.247 195.183 370.247 194.355 368.727 184.395C367.227 174.785 366.015 164.387 354.715 162.865C342.743 161.238 336.027 156.023 335.983 144.279C335.939 132.536 345.823 128.689 354.703 125.861C384.427 116.431 415.179 115.391 446.051 116.235C453.471 116.43 460.223 116.912 459.839 127.208C459.471 136.755 458.479 146.115 446.415 146.645C433.251 147.188 421.131 151.853 408.471 154.249C395.163 156.75 399.687 166.641 399.955 174.205C400.291 183.597 406.751 184.725 414.831 183.675C436.043 180.918 439.155 182.811 444.207 202.931C446.711 212.837 452.263 222.309 449.651 233.173C445.191 231.681 440.895 232.773 436.583 233.939C408.895 241.432 381.247 248.949 353.599 256.465Z" fill="#FDB699"/>
<path d="M353.595 256.465C381.243 248.948 408.891 241.431 436.539 233.915C440.847 232.748 445.143 231.657 449.607 233.149C450.375 235.071 451.143 236.994 451.879 238.926C449.739 244.158 445.279 245.827 440.215 246.983C415.067 252.687 389.651 257.399 365.387 266.629C360.479 268.489 355.559 268.328 352.143 263.322C352.655 261.017 353.103 258.729 353.595 256.465Z" fill="#44292C"/>
<path d="M562.518 547.56C571.122 579.36 578.146 606.372 585.802 633.208C589.246 645.276 585.93 652.103 573.47 655.367C538.206 664.591 503.11 674.444 467.898 683.724C451.258 688.12 441.094 681.992 436.038 665.672C419.486 612.404 409.506 557.495 396.022 503.467C385.606 461.68 377.722 419.134 367.254 377.288C363.974 364.253 363.722 350.826 360.286 337.727C357.906 328.675 363.738 321.556 373.29 318.972C404.11 310.561 434.906 302.05 465.818 293.97C477.518 290.91 484.842 296.28 488.25 307.682C502.926 356.664 519.922 404.877 534.966 453.759C545.082 486.539 553.306 519.828 562.518 547.56ZM521.854 465.408C516.178 445.88 506.394 428.924 490.49 415.789C460.114 390.731 417.618 404.538 408.406 442.83C400.974 473.751 409.274 501.407 430.106 524.467C455.518 552.611 495.242 551.451 515.486 522.639C527.866 505.119 527.91 485.432 521.854 465.408ZM443.442 367.788C440.818 359.798 438.19 351.806 435.634 343.797C434.194 339.393 431.442 337.118 426.658 338.377C421.874 339.636 420.482 342.783 421.71 347.458C424.15 356.6 427.058 365.509 431.51 373.93C433.762 378.185 436.646 379.892 441.114 377.724C445.67 375.496 445.53 371.698 443.442 367.788ZM489.714 610.2C490.766 614.744 492.246 619.563 497.998 618.859C504.718 618.035 504.81 612.86 503.918 607.456C502.77 600.592 502.042 593.687 500.898 586.823C500.09 581.995 497.938 577.855 492.198 578.875C487.482 579.727 486.114 583.612 486.67 588.044C487.634 595.42 488.706 602.8 489.714 610.2ZM553.586 580.307C552.614 575.667 531.978 556.888 528.474 556.948C522.102 557.076 518.202 561.467 521.91 566.359C527.73 574.055 535.514 580.331 542.874 586.755C545.154 588.731 548.834 588.127 551.022 585.831C552.534 584.179 553.01 581.599 553.586 580.307ZM471.438 382.339C478.986 380.901 488.262 354.95 483.414 348.874C481.206 346.098 478.454 346.061 475.566 347.482C472.046 349.216 463.15 374.601 464.518 378.6C465.722 382.003 468.15 382.945 471.438 382.339ZM452.822 571.063C448.214 572.311 436.058 592.363 436.994 597.011C437.934 601.659 441.918 604.947 445.406 602.443C453.914 596.267 458.97 586.944 460.91 576.76C461.73 572.416 457.018 570.531 452.822 571.063ZM411.662 385.16C409.806 378.168 393.462 366.431 387.514 367.863C383.578 368.823 381.578 371.174 382.466 375.374C383.526 380.343 403.53 394.819 407.402 393.345C411.206 391.889 412.586 389.101 411.662 385.16Z" fill="#FE7C88"/>
<path d="M506.227 696.792C499.235 698.968 493.719 700.676 491.599 694.288C489.523 688.064 495.075 685.96 499.603 683.884C504.499 681.6 509.451 679.372 514.359 677.12C518.563 675.164 523.063 673.38 526.023 678.544C528.911 683.552 525.791 687.024 521.535 689.312C515.867 692.304 510.003 694.956 506.227 696.792Z" fill="#FDF0EB"/>
<path d="M502.063 723.452C501.131 723.564 497.735 724.164 494.291 724.456C489.623 724.832 485.015 724.516 484.371 718.44C483.791 713.02 488.127 712.2 491.939 711.168C496.715 709.876 501.499 708.62 506.327 707.524C510.915 706.46 516.607 703.288 518.927 710.152C521.299 717.216 515.663 719.524 510.219 721.248C508.347 721.824 506.407 722.276 502.063 723.452Z" fill="#FDF0EB"/>
<path d="M547.903 711.759C543.491 712.031 538.867 713.351 534.767 712.403C527.951 710.767 527.235 704.567 532.407 701.711C539.567 697.783 548.163 696.415 556.271 694.295C558.867 693.627 561.023 695.279 562.063 697.807C563.331 700.907 562.703 703.847 559.859 705.575C556.103 707.871 552.027 709.647 547.903 711.759Z" fill="#FDF0EB"/>
<path d="M452.847 715.712C459.043 715.988 467.991 710.12 471.939 719.316C475.215 726.956 467.075 727.916 462.063 728.456C454.835 729.236 445.107 735.104 441.311 724.764C438.679 717.664 447.095 717.34 452.847 715.712Z" fill="#FDF0EB"/>
<path d="M521.851 465.407C527.911 485.431 527.855 505.087 515.495 522.671C495.215 551.495 455.523 552.643 430.115 524.503C409.283 501.443 400.979 473.783 408.415 442.863C417.627 404.571 460.119 390.763 490.495 415.822C506.423 428.915 516.175 445.879 521.851 465.407ZM424.335 485.259C426.283 496.807 432.763 508.511 442.967 517.683C454.971 528.503 469.391 534.971 485.379 529.223C501.759 523.335 510.727 509.791 511.387 492.495C512.487 462.503 499.855 438.576 474.859 422.219C457.463 410.803 438.491 416.185 427.791 434.246C418.575 449.775 418.819 466.327 424.335 485.259Z" fill="#F9DBDD"/>
<path d="M443.438 367.788C445.518 371.664 445.666 375.496 441.066 377.699C436.598 379.867 433.714 378.161 431.462 373.905C427.01 365.484 424.102 356.576 421.666 347.433C420.442 342.791 421.834 339.645 426.61 338.353C431.394 337.094 434.146 339.368 435.586 343.773C438.218 351.797 440.846 359.788 443.438 367.788Z" fill="#F9DBDD"/>
<path d="M489.742 610.191C488.738 602.791 487.634 595.419 486.702 588.035C486.142 583.603 487.51 579.715 492.23 578.867C498.002 577.839 500.154 581.979 500.926 586.811C502.074 593.675 502.802 600.583 503.95 607.447C504.842 612.851 504.746 618.027 498.03 618.851C492.246 619.563 490.794 614.735 489.742 610.191Z" fill="#F9DBDD"/>
<path d="M553.578 580.307C553.002 581.599 552.526 584.179 551.01 585.795C548.85 588.087 545.138 588.699 542.858 586.723C535.498 580.299 527.714 574.023 521.894 566.327C518.186 561.435 522.086 557.043 528.458 556.915C531.966 556.855 552.61 575.667 553.578 580.307Z" fill="#F9DBDD"/>
<path d="M471.442 382.372C468.142 382.945 465.718 382.003 464.546 378.591C463.178 374.592 472.074 349.206 475.59 347.473C478.482 346.052 481.23 346.089 483.442 348.865C488.298 354.974 478.986 380.934 471.442 382.372Z" fill="#F9DBDD"/>
<path d="M452.819 571.063C457.015 570.531 461.727 572.415 460.907 576.759C458.967 586.943 453.911 596.267 445.403 602.439C441.923 604.979 437.927 601.655 436.991 597.011C436.055 592.363 448.211 572.311 452.819 571.063Z" fill="#F9DBDD"/>
<path d="M411.659 385.159C412.583 389.1 411.203 391.889 407.395 393.345C403.523 394.818 383.499 380.385 382.463 375.373C381.575 371.174 383.571 368.822 387.511 367.862C393.459 366.431 409.795 378.134 411.659 385.159Z" fill="#F9DBDD"/>
<path d="M424.334 485.26C418.822 466.332 418.578 449.776 427.794 434.247C438.47 416.228 457.442 410.846 474.862 422.221C499.866 438.611 512.49 462.508 511.386 492.496C510.762 509.784 501.75 523.304 485.382 529.224C469.39 534.972 454.97 528.504 442.97 517.688C432.762 508.516 426.286 496.808 424.334 485.26ZM477.374 510.684C484.31 508.7 489.974 504.896 493.774 498.684C496.07 494.936 499.59 490.468 495.254 486.668C490.978 482.96 486.978 486.068 483.982 489.86C479.19 495.952 472.886 498.048 465.494 496.496C461.074 495.564 456.25 493.244 454.518 499.608C452.718 506.1 457.93 508.276 462.686 509.936C467.386 511.648 472.378 512.072 477.374 510.684ZM481.958 453.048C476.382 454.272 467.23 452.948 469.27 462.448C470.73 469.296 478.714 469.336 484.254 467.588C490.35 465.656 497.03 461.008 494.998 453.888C492.874 446.436 486.858 449.056 481.958 453.048ZM442.146 466.516C438.234 468.5 428.438 464.12 431.142 474.644C433.15 482.448 439.978 480.992 445.806 479.38C451.89 477.66 457.79 473.828 455.558 467.152C453.006 459.424 447.174 463.132 442.146 466.516Z" fill="#FE7C88"/>
<path d="M477.374 510.683C472.374 512.071 467.418 511.635 462.694 509.967C457.938 508.307 452.722 506.131 454.526 499.639C456.258 493.275 461.094 495.627 465.502 496.527C472.894 498.079 479.198 495.983 483.99 489.891C486.986 486.099 490.986 482.991 495.262 486.699C499.634 490.487 496.066 494.935 493.782 498.715C489.97 504.895 484.31 508.699 477.374 510.683Z" fill="#F9DBDD"/>
<path d="M481.958 453.043C486.858 449.055 492.874 446.431 494.998 453.883C497.03 461.007 490.35 465.655 484.254 467.587C478.682 469.343 470.738 469.327 469.27 462.443C467.23 452.943 476.37 454.235 481.958 453.043Z" fill="#F9DBDD"/>
<path d="M442.143 466.52C447.183 463.168 453.003 459.424 455.547 467.12C457.747 473.804 451.879 477.628 445.795 479.348C439.975 480.992 433.147 482.448 431.131 474.612C428.435 464.12 438.231 468.5 442.143 466.52Z" fill="#F9DBDD"/>
<path d="M842.047 755.235C844.247 751.087 846.203 747.627 847.955 744.095C853.867 732.303 863.039 724.107 876.471 727.775C890.351 731.547 897.631 742.551 898.251 757.295C899.075 776.459 890.555 793.083 881.591 808.719C855.515 854.279 859.191 854.519 821.231 818.555C807.351 805.427 796.359 790.443 790.691 771.831C788.799 765.659 788.111 759.523 788.491 753.283C789.279 740.427 793.883 729.251 807.523 726.167C821.915 722.907 829.407 732.611 835.107 744.095C836.859 747.523 836.275 752.151 842.047 755.235Z" fill="#FE596F"/>
<path d="M200.57 680.425C201.759 692.165 201.332 704.573 198.71 716.069C196.941 723.813 193.984 732.349 187.489 737.441C184.014 740.157 180.08 740.981 175.812 741.709C169.409 742.841 163.006 743.969 156.603 745.097C153.493 745.645 150.414 746.193 147.304 746.741C148.127 749.669 148.92 752.625 149.743 755.553C150.597 755.309 151.481 755.189 152.365 755.037C153.127 754.913 151.481 755.125 152.609 755.005C153.127 754.945 153.615 754.913 154.133 754.881C155.414 754.793 156.695 754.761 157.975 754.793C164.409 754.945 170.872 756.833 176.33 760.677C185.843 767.353 189.929 778.329 193.435 788.941C196.118 797.081 199.32 806.777 199.96 814.673C200.051 815.741 199.991 816.809 200.021 817.877C200.051 819.277 200.356 817.145 199.899 818.637C199.564 819.673 200.631 817.569 199.96 818.453C200.448 817.845 200.722 817.357 201.332 817.081C203.619 818.393 205.905 819.705 208.223 821.045C207.552 811.197 207.979 800.985 209.778 791.289C210.997 784.701 212.796 777.505 217.035 772.141C218.773 769.945 220.968 768.117 223.62 767.233C229.718 765.189 236.731 764.549 243.073 763.785C251.153 762.841 259.385 762.169 267.526 762.473C272.557 762.657 273.929 754.213 268.746 753.481C255.909 751.649 242.89 748.753 230.785 744.089C227.066 742.657 223.377 740.949 220.083 738.721C217.919 737.261 215.632 735.065 215.053 733.509C213.559 729.393 213.284 724.485 212.735 720.153C212.065 714.545 211.546 708.905 211.089 703.261C210.479 695.669 209.991 688.049 209.686 680.425C209.473 674.541 200.326 674.509 200.57 680.425C200.844 687.409 201.301 694.389 201.82 701.373C202.643 712.381 203.192 723.937 205.905 734.669C207.857 742.413 215.266 747.077 222.096 750.249C230.694 754.241 239.871 756.865 249.08 758.997C254.781 760.309 260.544 761.469 266.337 762.293C266.733 759.305 267.16 756.317 267.557 753.297C260.025 753.021 252.433 753.601 244.933 754.393C237.524 755.189 229.962 756.133 222.706 757.961C218.925 758.909 215.541 760.737 212.674 763.389C201.271 773.877 199.503 792.905 198.954 807.417C198.771 811.929 198.741 816.505 199.045 821.045C199.289 824.705 202.704 826.505 205.936 825.009C208.589 823.789 209.107 820.009 209.199 817.509C209.503 809.337 206.637 800.649 204.29 792.965C200.387 780.097 196.21 766.529 186.148 757.049C179.379 750.677 170.842 746.957 161.634 745.949C156.969 745.429 151.847 745.585 147.273 746.801C141.51 748.357 144.011 756.621 149.712 755.613C152.182 755.189 154.682 754.729 157.152 754.305C163.25 753.237 169.378 752.137 175.476 751.073C181.026 750.097 186.392 749.241 191.148 746.009C206.759 735.489 209.656 713.233 210.083 695.913C210.205 690.761 210.174 685.577 209.625 680.457C209.137 674.633 199.991 674.573 200.57 680.425Z" fill="#F9B121"/>
<path d="M744.57 124.425C745.759 136.165 745.332 148.573 742.71 160.069C740.941 167.813 737.984 176.349 731.489 181.441C728.014 184.157 724.08 184.981 719.812 185.709C713.409 186.841 707.006 187.969 700.603 189.097C697.493 189.645 694.414 190.193 691.304 190.741C692.127 193.669 692.92 196.625 693.743 199.553C694.597 199.309 695.481 199.189 696.365 199.037C697.127 198.913 695.481 199.125 696.609 199.005C697.127 198.945 697.615 198.913 698.133 198.881C699.414 198.793 700.695 198.761 701.975 198.793C708.409 198.945 714.872 200.833 720.33 204.677C729.843 211.353 733.929 222.329 737.435 232.941C740.118 241.081 743.32 250.777 743.96 258.673C744.051 259.741 743.991 260.809 744.021 261.877C744.051 263.277 744.356 261.145 743.899 262.637C743.564 263.673 744.631 261.569 743.96 262.453C744.448 261.845 744.722 261.357 745.332 261.081C747.619 262.393 749.905 263.705 752.223 265.045C751.552 255.197 751.979 244.985 753.778 235.289C754.997 228.701 756.796 221.505 761.035 216.141C762.773 213.945 764.968 212.117 767.62 211.233C773.718 209.189 780.731 208.549 787.073 207.785C795.153 206.841 803.385 206.169 811.526 206.473C816.557 206.657 817.929 198.213 812.746 197.481C799.909 195.649 786.89 192.753 774.785 188.089C771.066 186.657 767.377 184.949 764.083 182.721C761.919 181.261 759.632 179.065 759.053 177.509C757.559 173.393 757.284 168.485 756.735 164.153C756.065 158.545 755.546 152.905 755.089 147.261C754.479 139.669 753.991 132.049 753.686 124.425C753.473 118.541 744.326 118.509 744.57 124.425C744.844 131.409 745.301 138.389 745.82 145.373C746.643 156.381 747.192 167.937 749.905 178.669C751.857 186.413 759.266 191.077 766.096 194.249C774.694 198.241 783.871 200.865 793.08 202.997C798.781 204.309 804.544 205.469 810.337 206.293C810.733 203.305 811.16 200.317 811.557 197.297C804.025 197.021 796.433 197.601 788.933 198.393C781.524 199.189 773.962 200.133 766.706 201.961C762.925 202.909 759.541 204.737 756.674 207.389C745.271 217.877 743.503 236.905 742.954 251.417C742.771 255.929 742.741 260.505 743.045 265.045C743.289 268.705 746.704 270.505 749.936 269.009C752.589 267.789 753.107 264.009 753.199 261.509C753.503 253.337 750.637 244.649 748.29 236.965C744.387 224.097 740.21 210.529 730.148 201.049C723.379 194.677 714.842 190.957 705.634 189.949C700.969 189.429 695.847 189.585 691.273 190.801C685.51 192.357 688.011 200.621 693.712 199.613C696.182 199.189 698.682 198.729 701.152 198.305C707.25 197.237 713.378 196.137 719.476 195.073C725.026 194.097 730.392 193.241 735.148 190.009C750.759 179.489 753.656 157.233 754.083 139.913C754.205 134.761 754.174 129.577 753.625 124.457C753.137 118.633 743.991 118.573 744.57 124.425Z" fill="#F9B121"/>
</svg>
