<svg width="960" height="960" viewBox="0 0 960 960" fill="none" xmlns="http://www.w3.org/2000/svg">
<rect width="960" height="960" fill="#FFF3E3"/>
<mask id="mask0_39_1095" style="mask-type:luminance" maskUnits="userSpaceOnUse" x="30" y="30" width="900" height="900">
<path d="M930 480C930 231.472 728.528 30 480 30C231.472 30 30 231.472 30 480C30 728.528 231.472 930 480 930C728.528 930 930 728.528 930 480Z" fill="white"/>
</mask>
<g mask="url(#mask0_39_1095)">
<path d="M930 480C930 231.472 728.528 30 480 30C231.472 30 30 231.472 30 480C30 728.528 231.472 930 480 930C728.528 930 930 728.528 930 480Z" fill="#FFF5EB"/>
<path d="M170.549 489.761C242.924 495.791 247.616 564.315 240.914 597.821C258.502 625.466 233.381 690.806 198.198 690.806C213.284 648.082 190.657 627.979 183.112 640.545C208.237 685.777 168.041 723.476 160.503 715.935C175.582 680.752 147.937 658.136 145.424 670.699C178.094 725.989 92.6507 778.762 90.1344 763.684C108.232 723.476 95.9957 710.07 87.6144 708.397C88.4544 720.124 87.1193 749.107 75.0593 771.221C59.9806 798.866 -33.0044 811.432 4.69064 788.812C34.8481 770.719 30.6594 756.142 24.7981 751.117C12.2319 778.762 -7.87186 786.3 -38.0294 791.329C-62.1569 795.349 -100.021 784.627 -115.936 778.762C-116.772 771.221 -116.438 753.127 -108.398 741.067C-98.3444 725.989 -73.2156 733.526 -48.0831 733.526C-27.9794 733.526 -36.3569 725.149 -43.0581 720.96C-47.2469 719.287 -60.1432 716.94 -78.2369 720.96C-96.3344 724.984 -97.5044 719.287 -95.8319 715.935C-94.9919 710.91 -91.3057 697.339 -83.2657 683.265C-75.2219 669.191 -54.7844 665.674 -45.5707 665.674C-32.1644 665.674 -1.33936 667.684 14.7444 675.727C34.8481 685.777 47.4106 683.265 17.2568 665.674C-12.8969 648.082 -68.1868 653.107 -68.1868 648.082C-68.1868 643.057 -60.6456 610.387 -33.0044 597.821C-5.35937 585.255 47.4106 645.57 77.5719 635.516C59.9806 635.516 39.8769 597.821 2.17442 582.742C-10.3881 575.205 -27.9794 590.284 -22.9544 572.692C-17.9294 555.101 2.17439 527.456 47.4106 522.431C95.1594 522.431 110.238 600.333 140.396 585.255C110.238 572.692 100.181 522.431 87.6144 509.865C75.0519 497.299 82.5894 492.274 100.181 489.761C168.033 482.22 180.599 560.126 183.112 560.126C185.624 560.126 185.628 524.944 170.549 509.865C155.471 494.786 157.983 489.761 170.549 489.761Z" fill="#A3CCAF"/>
<path d="M238.094 594.428C117.468 561.758 92.3356 710.033 -35.8281 755.269" stroke="#83AB8F" stroke-linecap="round"/>
<path d="M240.61 594.795C259.274 601.039 276.749 618.578 293.061 644.625C334.259 708.675 366.921 822.664 391.96 945.39C421.165 1082.24 442.544 1231.45 456.73 1338.66H449.279C439.202 1237.08 420.55 1085.54 391.96 945.39C365.549 821.629 332.736 707.97 293.061 644.625C276.906 619.511 259.442 602.074 240.61 594.795Z" fill="#58AE09"/>
<path d="M293.061 644.625C276.749 618.578 259.274 601.039 240.61 594.795C259.442 602.074 276.906 619.511 293.061 644.625ZM293.061 644.625C334.259 708.675 366.921 822.664 391.96 945.39M293.061 644.625C332.736 707.97 365.549 821.629 391.96 945.39M391.96 945.39C421.165 1082.24 442.544 1231.45 456.73 1338.66H449.279C439.202 1237.08 420.55 1085.54 391.96 945.39Z" stroke="#83AB8F" stroke-width="1.5"/>
<path d="M682.904 594.795C568.63 633.019 499.075 1094.63 466.78 1338.66H474.231C496.589 1113.25 561.179 641.839 682.904 594.795Z" stroke="#83AB8F" stroke-width="2"/>
<path d="M558.91 657.548C544.626 638.719 535.78 541.8 655.026 562.725C633.974 528.094 640.769 500.247 676.112 460.673C711.456 421.099 743.616 464.888 763.472 466.467C790.281 457.395 804.977 472.692 802.776 473.153C800.575 473.614 788.706 477.252 783.49 485.239C778.274 493.223 755.916 507.101 746.706 512.479C737.5 517.856 722.665 534.75 726.711 543.09C730.757 551.43 738.228 548.715 772.24 508.272C806.253 467.828 832.874 485.217 855.554 505.725C897.164 523.414 903.734 565.68 894.471 565.328C878.039 552.694 835.611 542.07 814.176 560.348C792.745 578.629 764.493 575.367 759.224 577.62C753.955 579.874 750.884 581.667 757.54 586.013C786.767 599.408 823.139 575.697 860.136 571.38C897.134 567.064 903.543 592.137 898.383 605.854C893.219 619.572 909.813 649.399 901.42 647.715C892.049 635.899 879.254 635.134 847.99 639.398C816.722 643.658 799.367 626.625 801.212 635.427C820.007 664.793 875.425 649.722 884.279 653.607C893.132 657.492 901.39 691.365 889.409 683.543C877.431 675.717 854.612 687.398 860.342 687.342C866.076 687.289 892.18 696.743 885.632 703.86C879.085 710.978 883.701 732.979 888.67 745.718C893.639 758.46 884.785 754.575 869.736 748.541C854.691 742.511 805.574 771.191 795.036 775.699C784.495 780.206 770.834 780.777 762.332 767.629C753.831 754.482 759.325 682.118 751.39 682.632C709.364 761.513 763.06 798.488 754.259 800.333C716.039 815.243 714.494 791.449 704.361 792.428C694.229 793.403 678.31 788.704 665.249 759.282C641.32 699.983 672.213 655.602 679.165 644.952C686.121 634.305 693.074 623.659 680.335 628.628C639.152 656.794 633.089 715.493 643.439 737.442C651.715 754.999 642.25 751.857 636.482 748.088C630.134 745.208 611.196 731.573 586.206 700.058C554.973 660.668 602.646 619.658 595.994 615.311C564.265 617.37 568.229 663.63 558.91 657.548Z" fill="#7DBF3D"/>
<path d="M655.016 562.725C675.487 567.236 744.386 604.391 856.203 716.921" stroke="#83AB8F" stroke-linecap="round" stroke-linejoin="round"/>
<path d="M722.642 485.37C703.799 497.745 670.709 533.475 683.789 573.918M847.671 511.972C807.779 520.725 724.472 548.842 710.406 591.303" stroke="#83AB8F" stroke-linecap="round" stroke-linejoin="round"/>
<path d="M876.318 604.74C846.142 599.584 777.918 596.67 749.924 620.918M784.169 745.819C788.489 720.792 793.987 664.508 783.254 648.383M821.497 682.857C825.082 688.995 832.908 705.503 835.537 722.408M729.498 605.678C734.602 679.264 681.899 701.805 711.258 776.044M694.897 583.073C627.15 599.584 612.337 665.862 617.523 701.528" stroke="#83AB8F" stroke-linecap="round" stroke-linejoin="round"/>
<path d="M327.638 667.477C340.204 632.295 460.83 536.797 536.224 712.713C563.861 654.911 606.593 639.832 689.524 652.398C772.455 664.965 742.298 745.383 757.376 773.025C792.559 800.67 785.021 833.34 782.505 830.827C779.993 828.311 764.914 815.748 749.835 815.748C734.76 815.748 697.061 798.157 681.983 790.616C666.908 783.078 631.721 778.05 624.184 790.616C616.646 803.182 626.696 810.72 709.628 820.773C792.559 830.827 792.559 881.088 785.021 928.833C797.584 999.202 747.323 1044.43 739.785 1031.87C742.298 999.202 719.681 933.862 676.958 921.296C634.238 908.73 614.13 868.522 606.593 863.497C599.055 858.468 594.026 855.956 594.026 868.522C601.568 918.783 664.391 946.425 702.09 991.661C739.785 1036.9 712.14 1067.05 689.524 1072.08C666.908 1077.1 641.775 1124.85 636.75 1112.29C644.288 1089.67 634.238 1072.08 601.568 1034.38C568.898 996.686 576.435 958.991 566.385 969.045C543.765 1019.31 611.618 1079.62 614.13 1094.7C616.646 1109.77 578.948 1149.99 578.948 1127.37C578.948 1104.75 543.765 1084.65 548.794 1092.18C553.819 1099.72 563.869 1142.44 548.794 1139.93C533.715 1137.42 508.583 1162.55 496.016 1180.14C483.454 1197.73 480.941 1182.65 475.913 1157.52C470.888 1132.39 390.469 1092.18 375.39 1082.13C360.311 1072.08 347.749 1054.49 357.799 1031.87C367.853 1009.25 468.375 953.966 460.834 943.912C320.104 956.478 317.591 1059.51 307.538 1049.46C254.764 1011.76 284.918 989.148 274.864 976.582C264.814 964.016 257.273 938.887 284.918 896.163C342.716 813.236 428.16 815.748 448.268 815.748C468.371 815.748 488.475 815.748 470.884 803.182C398.006 773.025 315.075 815.748 294.968 848.418C278.888 874.552 274.864 859.308 274.864 848.418C273.191 837.528 274.864 800.67 294.968 740.355C320.1 664.965 415.598 692.606 415.598 680.043C385.44 639.832 327.638 685.068 327.638 667.477Z" fill="#A3CCAF"/>
<path d="M536.215 712.714C547.945 743.708 558.333 867.016 506.062 1112.29" stroke="#83AB8F" stroke-linecap="round" stroke-linejoin="round"/>
<path d="M697.053 735.33C664.383 721.091 588.491 708.187 546.27 760.459M769.934 923.809C723.862 878.576 614.625 792.63 546.27 810.724" stroke="#83AB8F" stroke-linecap="round" stroke-linejoin="round"/>
<path d="M671.925 1041.92C652.661 997.527 597.54 904.71 541.249 888.627M405.544 1041.92C442.399 1026.01 521.644 984.627 533.707 956.479M521.141 1036.9C516.116 1046.95 501.037 1071.58 480.934 1089.67M543.761 848.419C450.776 918.784 375.386 868.523 302.505 971.558M543.761 783.079C463.342 707.685 362.82 745.384 320.096 783.079" stroke="#83AB8F" stroke-linecap="round" stroke-linejoin="round"/>
<path d="M240.251 499.028L251.767 583.283C251.767 583.283 252.817 597.42 264.858 597.42C276.9 597.42 275.328 582.237 275.328 582.237L262.241 491.194L240.251 499.028Z" fill="white"/>
<path d="M249.397 510.825C289.559 508.053 319.128 462.532 315.442 409.158C311.755 355.78 276.209 314.759 236.047 317.532C195.888 320.306 166.319 365.825 170.005 419.201C173.692 472.578 209.238 513.6 249.397 510.825Z" fill="white"/>
<path d="M225.236 506.996C225.236 506.996 226.129 503.876 227.914 503.197C229.695 502.518 274.14 503.197 274.14 503.197L264.757 508.335L232.586 509.906L225.236 506.996Z" fill="#E8E6E6"/>
<path d="M253.451 654.585C251.438 641.419 253.958 634.32 253.958 634.32C253.958 634.32 236.738 615.589 230.666 608.49C224.599 601.395 209.396 587.22 208.89 577.602C208.388 567.983 207.379 565.444 210.405 562.92C213.45 560.382 211.414 557.355 211.414 557.355L213.12 552.762L234.739 526.039C236.505 523.478 239.066 521.52 242.07 520.688C246.394 519.465 252.889 518.805 259.155 522.724C269.876 529.433 281.415 538.294 284.749 546.342C288.086 554.389 286.924 557.202 286.924 557.202C286.924 557.202 284.944 556.639 278.835 552.818C272.726 549 251.126 534.473 251.126 534.473C251.126 534.473 247.091 539.284 244.455 542.562C242.651 544.789 241.121 547.467 241.121 547.467C241.121 547.467 256.459 543.627 259.523 543.375C262.568 543.124 285.218 555.319 289.793 560.674C294.368 566.025 296.404 574.654 296.404 578.978C296.404 583.302 298.44 601.103 298.44 601.103C298.44 601.103 297.431 640.275 298.691 649.932" fill="#F4CDC1"/>
<path d="M390.081 696.607L324.25 842.062L310.693 849.99C310.693 849.99 292.019 855.712 285.194 827.595C278.369 799.477 318.936 652.121 355.645 616.421C396.133 680.066 390.081 696.607 390.081 696.607Z" fill="#F4CDC1"/>
<path d="M362.685 303.445C355.024 304.608 349.556 311.453 350.1 319.171C352.155 348.045 352.35 411.221 356.423 451.654C359.486 481.999 360.165 480.315 362.861 485.393C370.83 500.423 373.95 493.927 381.863 499.609C407.381 517.954 400.691 490.999 400.459 492.161C393.81 525.862 409.729 353.242 403.89 312.287C402.728 304.124 395.108 298.48 386.963 299.722L362.685 303.445Z" fill="#F29372"/>
<path d="M587.136 498.386C587.136 498.386 578.916 515.453 585.704 521.115C592.491 526.778 585.895 527.903 585.895 527.903C585.895 527.903 581.669 529.121 579.325 527.513C581.826 528.698 583.956 528.968 584.774 529.433C585.258 529.707 583.394 532.399 582.951 532.729C579.381 535.444 575.309 536.396 571.004 535.174C564.974 533.449 568.986 516.908 568.986 516.908L587.136 498.386Z" fill="#F29372"/>
<path d="M445.462 250.468C445.462 250.468 481.218 245.154 523.083 253.784C587.872 267.144 615.018 320.141 626.381 409.691C625.897 468.27 570.089 520.144 570.089 520.144C570.089 520.144 416.801 466.526 405.671 412.268C394.537 358.012 445.462 250.468 445.462 250.468Z" fill="#F29372"/>
<path d="M474.322 641.573L561.798 641.145C565.83 641.126 569.07 637.849 569.051 633.818L567.945 410.351C567.945 408.585 566.508 407.171 564.746 407.19L469.05 407.655C467.283 407.655 465.87 409.091 465.888 410.854L466.995 634.32C467.013 638.355 470.291 641.591 474.322 641.573Z" fill="#F4CDC1"/>
<path d="M488.917 532.575L508.192 529.354C560.373 519.716 568.188 498.349 568.053 467.944L567.686 404.979C567.532 374.573 540.15 350.062 506.527 350.218C472.901 350.392 445.751 375.155 445.908 405.559L446.276 480.818C446.411 511.264 455.295 532.729 488.917 532.575Z" fill="#EDB9AB"/>
<path d="M359.213 393.616C359.715 495.81 405.015 523.226 451.166 526.777C504.551 530.906 585.124 464.512 584.753 392.491C584.404 320.472 544.654 281.883 478.489 282.213C412.305 282.542 358.864 321.596 359.213 393.616Z" fill="#F4CDC1"/>
<path d="M602.245 419.059C606.707 430.71 600.869 443.764 589.214 448.223C577.562 452.682 564.512 446.847 560.05 435.192C555.591 423.537 561.426 410.487 573.081 406.028C584.736 401.586 597.786 407.423 602.245 419.059Z" fill="#F4CDC1"/>
<path d="M462.085 340.25C462.085 340.25 384.19 347.658 365.459 358.866C354.464 365.459 340.327 315.798 360.592 284.364C374.785 262.336 413.317 251.457 449.755 265.69C505.098 327.239 462.085 340.25 462.085 340.25Z" fill="#F29372"/>
<path d="M588.865 406.046C588.865 406.046 507.093 390.086 454.698 336.566C454.698 336.566 422.429 309.398 419.56 284.868C417.175 264.488 437.343 233.21 487.06 239.047C527.219 243.758 574.941 268.812 589.6 302.126C610.855 350.45 588.865 406.046 588.865 406.046Z" fill="#F29372"/>
<path d="M426.559 267.047C426.559 267.047 409.883 305.384 454.695 336.566C416.903 322.662 409.395 290.879 426.559 267.047Z" fill="#EA856A"/>
<path d="M587.865 437.052C587.419 437.052 586.972 436.898 586.624 436.587L575.085 426.852L576.424 425.359C578.865 422.625 581.621 421.23 584.704 421.328C590.325 421.422 594.574 426.465 594.746 426.679C595.425 427.493 595.309 428.734 594.495 429.413C593.681 430.092 592.459 429.994 591.761 429.162C591.724 429.12 588.446 425.262 584.606 425.205C583.305 425.187 581.989 425.633 580.766 426.563L589.106 433.602C589.92 434.299 590.036 435.522 589.339 436.335C588.967 436.819 588.427 437.052 587.865 437.052Z" fill="#44292C"/>
<path d="M391.073 465.48C387.623 465.48 384.735 464.201 382.444 461.659C376.647 455.201 375.173 440.445 378.045 417.795C380.157 401.256 383.899 386.286 383.94 386.131C384.21 385.083 385.256 384.463 386.284 384.734C387.33 385.006 387.953 386.053 387.683 387.081C383.588 403.273 375.173 447.776 385.298 459.06C387.158 461.137 389.561 461.914 392.666 461.486C393.713 461.31 394.699 462.067 394.857 463.132C395.01 464.201 394.275 465.169 393.207 465.326C392.49 465.442 391.774 465.48 391.073 465.48Z" fill="#44292C"/>
<path d="M448.761 436.549C450.505 436.549 451.919 435.132 451.919 433.388C451.919 431.64 450.505 430.227 448.761 430.227C447.014 430.227 445.6 431.64 445.6 433.388C445.6 435.132 447.014 436.549 448.761 436.549Z" fill="#D69585"/>
<path d="M472.924 431.43C474.668 431.43 476.085 430.013 476.085 428.269C476.085 426.521 474.668 425.108 472.924 425.108C471.177 425.108 469.763 426.521 469.763 428.269C469.763 430.013 471.177 431.43 472.924 431.43Z" fill="#D69585"/>
<path d="M463.364 450.701C465.111 450.701 466.525 449.287 466.525 447.544C466.525 445.796 465.111 444.382 463.364 444.382C461.62 444.382 460.203 445.796 460.203 447.544C460.203 449.287 461.62 450.701 463.364 450.701Z" fill="#D69585"/>
<path d="M374.792 433.871C376.536 433.871 377.953 432.457 377.953 430.71C377.953 428.966 376.536 427.549 374.792 427.549C373.045 427.549 371.631 428.966 371.631 430.71C371.631 432.457 373.045 433.871 374.792 433.871Z" fill="#D69585"/>
<path d="M368.852 446.4C370.596 446.4 372.013 444.983 372.013 443.239C372.013 441.491 370.596 440.078 368.852 440.078C367.105 440.078 365.691 441.491 365.691 443.239C365.691 444.983 367.105 446.4 368.852 446.4Z" fill="#D69585"/>
<path d="M420.004 480.412C413.254 480.412 410.929 477.037 410.655 476.572C410.093 475.661 410.366 474.457 411.278 473.895C412.166 473.332 413.351 473.606 413.914 474.476C414.011 474.611 416.453 477.675 424.425 476.029C433.965 474.071 437.824 475.466 438.229 475.642C439.219 476.047 439.703 477.172 439.298 478.162C438.889 479.149 437.764 479.636 436.774 479.227C436.774 479.227 433.519 478.121 425.22 479.827C423.221 480.255 421.496 480.412 420.004 480.412Z" fill="#44292C"/>
<path d="M468.753 384.075C468.716 384.075 468.678 384.075 468.618 384.075C467.279 383.997 435.963 381.961 428.654 380.914C420.239 379.711 417.757 372.576 417.659 372.265C417.329 371.257 417.873 370.152 418.882 369.822C419.887 369.492 420.993 370.035 421.323 371.044C421.402 371.257 423.206 376.221 429.198 377.094C436.372 378.121 468.543 380.196 468.869 380.216C469.938 380.293 470.752 381.205 470.673 382.271C470.636 383.28 469.784 384.075 468.753 384.075Z" fill="#44292C"/>
<path d="M371.531 376.648C371.201 376.648 370.871 376.57 370.56 376.395C366.877 374.282 362.242 371.916 361.252 371.761C360.187 371.761 359.374 370.888 359.374 369.822C359.374 368.755 360.303 367.883 361.368 367.883C363.135 367.883 368.407 370.675 372.499 373.021C373.432 373.545 373.758 374.728 373.218 375.658C372.847 376.299 372.21 376.648 371.531 376.648Z" fill="#44292C"/>
<path d="M432.273 413.047C434.471 413.047 436.248 410.546 436.248 407.46C436.248 404.377 434.471 401.876 432.273 401.876C430.08 401.876 428.298 404.377 428.298 407.46C428.298 410.546 430.08 413.047 432.273 413.047Z" fill="#44292C"/>
<path d="M367.668 407.79C369.862 407.79 371.643 405.289 371.643 402.206C371.643 399.122 369.862 396.621 367.668 396.621C365.471 396.621 363.693 399.122 363.693 402.206C363.693 405.289 365.471 407.79 367.668 407.79Z" fill="#44292C"/>
<path d="M687.349 607.406C639.84 786.39 635.303 859.939 641.314 901.478C616.009 913.751 589.541 923.989 560.355 931.241L511.879 922.129C504.529 926.666 497.82 935.216 491.13 942.101C480.21 942.896 468.907 943.305 457.136 943.305C418.819 943.305 386.066 937.271 356.651 927.266C397.545 768.375 368.46 715.92 352.946 631.86C347.265 601.121 370.882 572.869 402.124 572.715L637.245 551.19C667.436 551.036 695.108 578.22 687.349 607.406Z" fill="#F4CDC1"/>
<path d="M662.042 890.887C604.255 921.896 542.65 943.301 457.135 943.301C416.586 943.301 382.262 936.555 351.55 925.481C355.911 874.62 364.675 758.036 360.779 683.749C356.125 595.305 354.846 573.585 402.122 572.715C402.122 572.715 434.331 624.859 529.037 614.64C623.725 604.417 637.24 551.19 637.24 551.19C637.24 551.19 677.789 547.039 693.265 576.225C702.359 593.366 646.9 759.667 662.042 890.887Z" fill="#FE596F"/>
<path d="M595.36 636.086L563.035 683.693L571.198 701.359L593.923 639.694L595.36 636.086Z" fill="#E53E5A"/>
<path d="M593.921 639.69L513.854 824.899C513.854 824.899 542.864 873.844 572.628 853.192C602.396 832.537 697.529 657.183 692.834 593.208C601.987 619.155 593.921 639.69 593.921 639.69Z" fill="#F4CDC1"/>
<path d="M499.277 613.241C499.277 613.241 503.271 772.485 502.304 807.622C501.876 823.425 524.312 861.78 538.682 864.322C553.071 866.861 601.296 852.472 597.921 797.479C594.527 742.485 553.457 662.089 553.457 662.089L499.277 613.241Z" fill="#F4CDC1"/>
<path d="M590.876 743.959L555.487 661.991C555.487 661.991 543.135 610.702 540.653 598.35C538.189 585.997 542.516 585.379 550.541 573.026C558.57 560.674 580.811 505.057 583.294 497.651C585.757 490.245 582.052 484.676 578.351 476.029C574.646 467.381 560.434 451.927 550.541 446.381C544.976 456.889 556.106 461.835 562.894 472.324C569.681 482.816 562.275 487.781 555.487 499.511C549.3 485.917 523.976 445.14 511.624 438.333C502.609 443.141 512.302 453.206 518.527 468.525C518.644 468.795 518.295 469.05 518.081 468.855C510.75 461.891 494.966 456.251 494.966 456.251C494.966 456.251 491.265 461.816 493.106 468.603C494.947 475.391 500.512 473.546 498.049 476.01C495.589 478.473 498.049 482.816 507.319 497.632C516.589 512.467 511.024 532.845 498.671 551.385C486.319 569.921 495.626 590.381 496.208 592.785C497.603 598.736 498.671 606.495 499.485 615.375" fill="#F4CDC1"/>
<path d="M590.883 745.901C590.126 745.901 589.409 745.455 589.098 744.735L553.593 662.438C553.477 661.935 541.199 610.973 538.739 598.718C536.703 588.559 539.069 585.435 543.742 579.191C545.234 577.196 546.941 574.928 548.898 571.939C556.773 559.838 579.093 504.03 581.437 496.991C583.259 491.543 581.223 487.065 578.392 480.878C577.792 479.58 577.173 478.2 576.551 476.749C573.138 468.776 560.553 455.108 551.418 449.134C549.809 453.904 552.584 457.241 557.568 462.668C559.837 465.131 562.394 467.925 564.528 471.24C570.502 480.45 566.564 486.229 561.618 493.523C560.242 495.555 558.671 497.865 557.178 500.445L555.299 503.7L553.747 500.269C547.657 486.87 523.631 448.474 511.649 440.561C508.372 442.946 509.943 446.786 514.713 455.978C516.517 459.45 518.553 463.388 520.334 467.749C520.743 468.739 520.394 469.845 519.521 470.426C518.647 471.026 517.503 470.929 516.749 470.213C511.124 464.861 499.976 460.226 495.862 458.618C495.029 460.478 493.886 464.048 494.973 468.041C495.768 470.989 497.279 471.743 498.483 472.365C499.278 472.774 500.362 473.314 500.557 474.615C500.771 475.954 499.781 476.959 499.394 477.33C497.939 478.785 501.663 484.931 508.934 496.564C517.717 510.623 514.556 530.985 500.246 552.431C493.286 562.883 492.374 575.779 497.549 590.749C497.804 591.488 497.977 592.009 498.056 592.301C499.394 598.001 500.519 605.7 501.371 615.161C501.468 616.23 500.692 617.179 499.627 617.276C498.558 617.393 497.609 616.579 497.512 615.533C496.657 606.244 495.573 598.74 494.272 593.194C494.216 592.98 494.081 592.571 493.886 592.009C488.283 575.839 489.348 561.78 497.028 550.26C510.446 530.13 513.588 511.301 505.638 498.6C496.833 484.504 493.439 479.074 495.941 475.41C494.448 474.574 492.258 472.928 491.189 469.05C489.134 461.486 493.128 455.359 493.304 455.108L494.137 453.848L495.573 454.35C496.098 454.545 506.178 458.171 514.053 463.271C513.104 461.31 512.133 459.469 511.241 457.725C506.549 448.688 502.514 440.91 510.697 436.53L511.631 436.046L512.542 436.549C524.913 443.355 547.754 479.869 555.667 495.383C556.616 493.909 557.527 492.551 558.401 491.291C563.189 484.234 565.829 480.353 561.269 473.295C559.312 470.25 556.964 467.711 554.696 465.248C549.344 459.431 544.305 453.923 548.823 445.373L549.753 443.606L551.478 444.578C561.427 450.161 576.146 465.889 580.121 475.159C580.739 476.591 581.339 477.93 581.924 479.209C584.988 485.94 587.411 491.254 585.123 498.154C582.697 505.448 560.381 561.334 552.157 573.975C550.139 577.08 548.317 579.503 546.862 581.441C542.384 587.415 540.869 589.41 542.557 597.866C544.923 609.694 556.559 658.076 557.336 661.275L592.664 743.108C593.092 744.098 592.646 745.241 591.656 745.646C591.404 745.841 591.135 745.901 590.883 745.901Z" fill="#44292C"/>
<path d="M543.701 516.559C543.584 516.559 543.468 516.537 543.352 516.518C542.302 516.327 541.586 515.318 541.781 514.268C541.799 514.133 544.203 500.093 537.494 491.775C530.302 482.835 517.271 470.018 517.132 469.883C516.378 469.125 516.36 467.907 517.113 467.13C517.871 466.373 519.093 466.354 519.847 467.112C520.391 467.633 533.171 480.218 540.521 489.334C548.336 499.047 545.714 514.309 545.598 514.947C545.444 515.899 544.631 516.559 543.701 516.559Z" fill="#44292C"/>
<path d="M528.152 529.279C527.766 523.482 527.357 517.856 526.484 512.505C525.516 507.154 524.14 502.129 521.151 498.368C519.542 496.099 517.817 493.946 516.092 491.794C514.405 489.604 512.582 487.526 510.797 485.434C508.956 483.398 507.115 481.361 505.056 479.576C503.042 477.754 500.909 476.108 498.134 475.429L498.077 475.41C497.98 475.388 497.924 475.294 497.943 475.178C497.961 475.099 498.04 475.039 498.115 475.039C501.104 474.923 503.796 476.321 506.181 477.851C508.589 479.423 510.798 481.264 512.894 483.203C517.06 487.14 520.802 491.464 524.256 496.02C525.962 498.349 527.26 501.004 528.074 503.76C528.85 506.531 529.315 509.381 529.529 512.231C529.919 517.954 529.529 523.692 528.52 529.335C528.501 529.433 528.404 529.511 528.31 529.493C528.212 529.47 528.152 529.395 528.152 529.316V529.279Z" fill="#44292C"/>
<path d="M561.404 515.142C560.59 515.142 559.833 514.639 559.563 513.822L557.448 507.578C557.294 507.132 557.118 506.708 556.904 506.299L552.366 497.322C551.883 496.369 552.273 495.207 553.221 494.723C554.17 494.239 555.336 494.625 555.82 495.574L560.358 504.555C560.646 505.137 560.901 505.737 561.115 506.337L563.227 512.58C563.575 513.589 563.035 514.695 562.004 515.044C561.831 515.123 561.618 515.142 561.404 515.142Z" fill="#44292C"/>
<path d="M602.789 655.961L591.64 743.396L570.427 693.93L593.928 639.694L602.789 655.961Z" fill="#EDB9AB"/>
<path d="M698.017 646.091C698.017 646.091 702.401 588.536 689.681 571.106C676.961 553.672 670.368 563.561 670.368 563.561L593.073 617.295L593.924 639.694L698.017 646.091Z" fill="#FE596F"/>
<path d="M337.409 680.006C337.409 680.006 328.394 699.592 325.251 707.25C316.446 728.659 319.413 770.002 320.384 773.415C307.255 719.895 308.091 711.866 308.091 711.866L319.454 680.764L337.409 680.006Z" fill="#EDB9AB"/>
<path d="M219.551 551.092C219.551 551.092 219.783 525.941 220.016 519.855C220.252 513.765 227.058 509.07 229.635 506.726C232.215 504.378 273.498 506.958 277.027 507.191C280.537 507.423 279.375 513.765 272.336 515.876C265.297 517.991 244.935 520.143 244.935 520.143" fill="#F4CDC1"/>
<path d="M298.658 651.889C297.709 651.889 296.876 651.173 296.738 650.201C295.478 640.68 296.389 604.148 296.468 601.2C296.273 599.415 294.432 583.226 294.432 578.978C294.432 574.984 292.474 566.82 288.285 561.934C287.16 560.614 284.929 558.908 282.195 557.085C281.033 556.444 279.578 555.593 277.774 554.468C277.016 554.003 276.049 553.38 274.905 552.645C268.08 548.768 261.06 545.393 259.564 545.314C257.258 545.509 245.779 548.303 241.553 549.349L237.15 550.455L239.4 546.518C239.456 546.401 241.009 543.686 242.91 541.358C245.565 538.061 249.6 533.254 249.6 533.254L250.722 531.915L252.177 532.886C252.372 533.021 269.397 544.463 277.347 549.619C279.424 550.823 281.46 552.083 283.301 553.283C283.98 553.673 284.561 553.984 285.045 554.254C284.85 552.761 284.31 550.433 282.911 547.118C280.294 540.836 271.47 532.77 258.071 524.393C252.409 520.864 246.495 521.464 242.539 522.589C240.056 523.305 237.829 524.933 236.277 527.183L221.269 545.839C220.59 546.671 219.368 546.806 218.535 546.128C217.699 545.449 217.564 544.23 218.243 543.394L233.175 524.858C235.133 521.985 238.118 519.795 241.493 518.846C246.207 517.508 253.283 516.81 260.149 521.096C270.117 527.318 282.776 536.629 286.519 545.606C289.313 552.296 289.178 555.806 288.885 557.239C289.894 558.056 290.689 558.791 291.233 559.414C296.119 565.114 298.309 574.286 298.309 578.978C298.309 583.148 300.308 600.716 300.326 600.889L300.345 601.028V601.163C300.345 601.549 299.355 640.294 300.578 649.68C300.713 650.745 299.978 651.716 298.909 651.851C298.834 651.87 298.755 651.889 298.658 651.889ZM251.479 537.053C250.103 538.721 247.718 541.59 245.951 543.784C245.779 543.998 245.621 544.189 245.468 544.403C249.656 543.394 255.416 542.055 258.266 541.59C255.398 539.693 252.953 538.043 251.479 537.053Z" fill="#44292C"/>
<path d="M222.756 556.541C221.98 556.541 221.241 556.076 220.952 555.3C220.562 554.31 221.05 553.189 222.058 552.799L244.802 543.938C245.792 543.551 246.917 544.035 247.303 545.044C247.693 546.03 247.206 547.155 246.201 547.545L223.453 556.406C223.221 556.504 222.988 556.541 222.756 556.541Z" fill="#44292C"/>
<path d="M251.054 589.623C251.054 589.623 252.816 611.321 264.861 610.47C275.312 609.731 275.331 595.286 275.331 595.286L274.285 585.416L256.251 578.452L250.063 582.311L251.054 589.623Z" fill="white"/>
<path d="M251.05 589.624L257.642 586.174L275.309 595.286L274.165 585.435L253.919 579.251L250.139 582.158L251.05 589.624Z" fill="#E8E6E6"/>
<path d="M288.314 594.18C285.116 594.18 281.452 593.018 277.398 590.73C266.324 584.468 259.035 581.753 256.863 581.014C255.525 581.655 252.288 583.283 248.546 585.881C243.386 589.448 237.569 592.864 237.509 592.901C236.579 593.445 235.398 593.134 234.854 592.204C234.311 591.274 234.622 590.089 235.552 589.545C235.608 589.508 241.293 586.174 246.333 582.683C251.587 579.038 255.817 577.215 255.989 577.136L256.631 576.863L257.309 577.058C257.639 577.155 265.608 579.578 279.318 587.336C283.935 589.954 287.868 590.846 290.722 589.935C292.057 589.508 292.931 588.731 293.433 588.131C292.173 586.523 289.788 583.496 288.431 582.004C287.696 581.19 286.222 579.326 284.535 577.174C282.345 574.403 278.718 569.824 277.709 568.954C277.342 568.815 276.738 568.526 275.516 567.983C271.308 566.063 260.16 560.963 256.106 560.828C256.068 560.828 256.008 560.828 255.952 560.828C251.898 560.828 235.845 566.063 225.896 569.633C224.887 569.981 223.781 569.475 223.413 568.466C223.046 567.461 223.567 566.355 224.576 565.988C227.212 565.035 250.503 556.676 256.222 556.95C260.471 557.104 269.178 560.828 277.106 564.454C278.174 564.938 278.909 565.286 279.183 565.384C280.229 565.733 281.317 566.876 287.561 574.789C289.132 576.788 290.625 578.689 291.281 579.405C293.298 581.614 297.157 586.658 297.333 586.871L298.031 587.783L297.585 588.829C297.528 588.964 296.073 592.241 292.02 593.599C290.857 593.989 289.634 594.18 288.314 594.18Z" fill="#44292C"/>
<path d="M382.736 574.71C382.736 574.71 364.2 574.147 349.597 591.562C334.995 608.977 315.566 680.745 315.566 680.745L373.177 689.838L416.418 681.423C416.418 681.401 386.092 582.022 382.736 574.71Z" fill="#FE596F"/>
<path d="M296.828 647.059C296.828 647.059 306 707.407 308.19 717.896C310.384 728.389 315.503 760.714 320.486 778.924C325.451 797.149 328.823 832.091 324.42 840.375C319.999 848.655 310.361 856.991 298.069 860.422C294.191 861.51 265.53 861.664 256.688 845.647C247.845 829.631 243.345 813.109 248.816 776.692C258.51 712.02 250.988 654.079 253.74 644.696C256.493 635.329 296.828 647.059 296.828 647.059Z" fill="#F4CDC1"/>
<path d="M319.249 773.494C318.412 773.494 317.636 772.95 317.385 772.118C311.509 752.494 297.334 654.39 296.734 650.224C296.58 649.155 297.315 648.188 298.384 648.03C299.43 647.895 300.42 648.611 300.574 649.68C300.728 650.689 315.311 751.68 321.109 771.011C321.42 772.039 320.839 773.126 319.811 773.434C319.635 773.475 319.44 773.494 319.249 773.494Z" fill="#44292C"/>
<path d="M266.035 487.935C265.318 487.935 264.621 487.527 264.291 486.829C263.822 485.862 264.231 484.699 265.202 484.253C280.693 476.843 290.158 463.598 294.133 443.76C294.347 442.714 295.356 442.017 296.421 442.249C297.467 442.463 298.146 443.49 297.932 444.537C293.706 465.657 283.543 479.79 266.867 487.763C266.597 487.879 266.327 487.935 266.035 487.935Z" fill="#B6B6B6"/>
<path d="M296.399 387.875C295.506 387.875 294.711 387.255 294.498 386.343C287.691 355.24 259.885 342.907 259.611 342.79C258.625 342.364 258.179 341.219 258.606 340.25C259.03 339.261 260.174 338.815 261.145 339.242C262.368 339.765 291.048 352.428 298.3 385.529C298.533 386.576 297.873 387.604 296.826 387.836C296.669 387.856 296.534 387.875 296.399 387.875Z" fill="#B6B6B6"/>
<path d="M264.6 604.283C262.234 604.283 260.16 603.431 258.454 601.763C253.391 596.798 253.447 585.9 253.447 585.435C253.47 584.37 254.321 583.515 255.39 583.515H255.409C256.474 583.534 257.347 584.408 257.329 585.473C257.306 588.169 257.947 595.83 261.169 598.988C262.174 599.978 263.34 600.424 264.754 600.386C265.86 600.368 266.711 601.2 266.752 602.265C266.79 603.334 265.939 604.226 264.87 604.264C264.791 604.283 264.697 604.283 264.6 604.283Z" fill="#B6B6B6"/>
</g>
<path d="M779.657 155.707C781.857 151.559 783.813 148.099 785.565 144.567C791.477 132.775 800.649 124.579 814.081 128.247C827.961 132.019 835.241 143.023 835.861 157.767C836.685 176.931 828.165 193.555 819.201 209.191C793.125 254.751 796.801 254.991 758.841 219.027C744.961 205.899 733.969 190.915 728.301 172.303C726.409 166.131 725.721 159.995 726.101 153.755C726.889 140.899 731.493 129.723 745.133 126.639C759.525 123.379 767.017 133.083 772.717 144.567C774.469 147.995 773.885 152.623 779.657 155.707Z" fill="#FE596F"/>
<path d="M177.57 189.425C178.759 201.165 178.332 213.573 175.71 225.069C173.941 232.813 170.984 241.349 164.489 246.441C161.014 249.157 157.08 249.981 152.812 250.709C146.409 251.841 140.006 252.969 133.603 254.097C130.493 254.645 127.414 255.193 124.304 255.741C125.127 258.669 125.92 261.625 126.743 264.553C127.597 264.309 128.481 264.189 129.365 264.037C130.127 263.913 128.481 264.125 129.609 264.005C130.127 263.945 130.615 263.913 131.133 263.881C132.414 263.793 133.695 263.761 134.975 263.793C141.409 263.945 147.872 265.833 153.33 269.677C162.843 276.353 166.929 287.329 170.435 297.941C173.118 306.081 176.32 315.777 176.96 323.673C177.051 324.741 176.991 325.809 177.021 326.877C177.051 328.277 177.356 326.145 176.899 327.637C176.564 328.673 177.631 326.569 176.96 327.453C177.448 326.845 177.722 326.357 178.332 326.081C180.619 327.393 182.905 328.705 185.223 330.045C184.552 320.197 184.979 309.985 186.778 300.289C187.997 293.701 189.796 286.505 194.035 281.141C195.773 278.945 197.968 277.117 200.62 276.233C206.718 274.189 213.731 273.549 220.073 272.785C228.153 271.841 236.385 271.169 244.526 271.473C249.557 271.657 250.929 263.213 245.746 262.481C232.909 260.649 219.89 257.753 207.785 253.089C204.066 251.657 200.377 249.949 197.083 247.721C194.919 246.261 192.632 244.065 192.053 242.509C190.559 238.393 190.284 233.485 189.735 229.153C189.065 223.545 188.546 217.905 188.089 212.261C187.479 204.669 186.991 197.049 186.686 189.425C186.473 183.541 177.326 183.509 177.57 189.425C177.844 196.409 178.301 203.389 178.82 210.373C179.643 221.381 180.192 232.937 182.905 243.669C184.857 251.413 192.266 256.077 199.096 259.249C207.694 263.241 216.871 265.865 226.08 267.997C231.781 269.309 237.544 270.469 243.337 271.293C243.733 268.305 244.16 265.317 244.557 262.297C237.025 262.021 229.433 262.601 221.933 263.393C214.524 264.189 206.962 265.133 199.706 266.961C195.925 267.909 192.541 269.737 189.674 272.389C178.271 282.877 176.503 301.905 175.954 316.417C175.771 320.929 175.741 325.505 176.045 330.045C176.289 333.705 179.704 335.505 182.936 334.009C185.589 332.789 186.107 329.009 186.199 326.509C186.503 318.337 183.637 309.649 181.29 301.965C177.387 289.097 173.21 275.529 163.148 266.049C156.379 259.677 147.842 255.957 138.634 254.949C133.969 254.429 128.847 254.585 124.273 255.801C118.51 257.357 121.011 265.621 126.712 264.613C129.182 264.189 131.682 263.729 134.152 263.305C140.25 262.237 146.378 261.137 152.476 260.073C158.026 259.097 163.392 258.241 168.148 255.009C183.759 244.489 186.656 222.233 187.083 204.913C187.205 199.761 187.174 194.577 186.625 189.457C186.137 183.633 176.991 183.573 177.57 189.425Z" fill="#F9B121"/>
</svg>
