<svg width="500" height="500" viewBox="0 0 500 500" fill="none" xmlns="http://www.w3.org/2000/svg">
<mask id="mask0_142_1091" style="mask-type:luminance" maskUnits="userSpaceOnUse" x="0" y="0" width="500" height="500">
<path d="M500 250C500 111.929 388.071 0 250 0C111.929 0 0 111.929 0 250C0 388.071 111.929 500 250 500C388.071 500 500 388.071 500 250Z" fill="white"/>
</mask>
<g mask="url(#mask0_142_1091)">
<path d="M78.0829 255.423C118.291 258.773 120.897 296.842 117.175 315.456C126.945 330.814 112.989 367.114 93.4433 367.114C101.825 343.379 89.2537 332.21 85.0621 339.191C99.0204 364.321 76.6891 385.264 72.5016 381.075C80.8787 361.529 65.5204 348.964 64.1245 355.944C82.2745 386.66 34.8058 415.979 33.4079 407.602C43.4621 385.264 36.6641 377.817 32.0079 376.887C32.4746 383.402 31.7328 399.504 25.0328 411.789C16.6558 427.148 -35.0025 434.129 -14.0609 421.562C2.6933 411.51 0.366215 403.412 -2.89003 400.621C-9.87128 415.979 -21.04 420.166 -37.7942 422.96C-51.1984 425.194 -72.2338 419.237 -81.0754 415.979C-81.54 411.789 -81.3546 401.737 -76.888 395.037C-71.3026 386.66 -57.3421 390.848 -43.3796 390.848C-32.2109 390.848 -36.865 386.194 -40.588 383.866C-42.915 382.937 -50.0796 381.633 -60.1317 383.866C-70.1859 386.102 -70.8359 382.937 -69.9067 381.075C-69.44 378.283 -67.3922 370.744 -62.9255 362.925C-58.4567 355.106 -47.1026 353.152 -41.9838 353.152C-34.5359 353.152 -17.4109 354.269 -8.47545 358.737C2.6933 364.321 9.67243 362.925 -7.07965 353.152C-23.8317 343.379 -54.5483 346.171 -54.5483 343.379C-54.5483 340.587 -50.3588 322.437 -35.0025 315.456C-19.6442 308.475 9.67246 341.983 26.4287 336.398C16.6558 336.398 5.48707 315.456 -15.4588 307.079C-22.4379 302.891 -32.2109 311.269 -29.4192 301.496C-26.6276 291.723 -15.4588 276.364 9.67246 273.573C36.1995 273.573 44.5766 316.852 61.3308 308.475C44.5766 301.496 38.9891 273.573 32.0079 266.591C25.0287 259.61 29.2162 256.819 38.9891 255.423C76.6849 251.233 83.6662 294.514 85.0621 294.514C86.4579 294.514 86.46 274.969 78.0829 266.591C69.7058 258.214 71.1016 255.423 78.0829 255.423Z" fill="#A3CCAF"/>
<path d="M115.608 313.571C48.5933 295.421 34.6308 377.796 -36.5713 402.927" stroke="#83AB8F" stroke-linecap="round"/>
<path d="M117.006 313.775C127.375 317.244 137.083 326.988 146.145 341.458C169.033 377.042 187.179 440.369 201.089 508.55C217.314 584.577 229.191 667.471 237.073 727.033H232.933C227.335 670.598 216.973 586.408 201.089 508.55C186.416 439.794 168.187 376.65 146.145 341.458C137.17 327.506 127.468 317.819 117.006 313.775Z" fill="#58AE09"/>
<path d="M146.145 341.458C137.083 326.988 127.375 317.244 117.006 313.775C127.468 317.819 137.17 327.506 146.145 341.458ZM146.145 341.458C169.033 377.042 187.179 440.369 201.089 508.55M146.145 341.458C168.187 376.65 186.416 439.794 201.089 508.55M201.089 508.55C217.314 584.577 229.191 667.471 237.073 727.033H232.933C227.335 670.598 216.973 586.408 201.089 508.55Z" stroke="#83AB8F" stroke-width="1.5"/>
<path d="M362.724 313.775C299.239 335.01 260.597 591.458 242.655 727.033H246.795C259.216 601.804 295.099 339.91 362.724 313.775Z" stroke="#83AB8F" stroke-width="2"/>
<path d="M293.839 348.638C285.904 338.177 280.989 284.334 347.237 295.959C335.541 276.719 339.316 261.248 358.951 239.263C378.587 217.277 396.454 241.604 407.485 242.481C422.379 237.442 430.543 245.94 429.32 246.196C428.097 246.452 421.504 248.473 418.606 252.911C415.708 257.346 403.287 265.056 398.17 268.044C393.056 271.031 384.814 280.417 387.062 285.05C389.31 289.684 393.46 288.175 412.356 265.706C431.251 243.238 446.041 252.898 458.641 264.292C481.758 274.119 485.408 297.6 480.262 297.404C471.133 290.386 447.562 284.484 435.654 294.638C423.747 304.794 408.051 302.981 405.124 304.234C402.197 305.486 400.491 306.481 404.189 308.896C420.426 316.338 440.633 303.165 461.187 300.767C481.741 298.369 485.301 312.298 482.435 319.919C479.566 327.54 488.785 344.111 484.122 343.175C478.916 336.611 471.808 336.186 454.439 338.554C437.068 340.921 427.426 331.459 428.451 336.348C438.893 352.663 469.681 344.29 474.599 346.448C479.518 348.606 484.106 367.425 477.449 363.079C470.795 358.731 458.118 365.221 461.301 365.19C464.487 365.161 478.989 370.413 475.351 374.367C471.714 378.321 474.279 390.544 477.039 397.621C479.799 404.7 474.881 402.542 466.52 399.19C458.162 395.84 430.874 411.773 425.02 414.277C419.164 416.781 411.574 417.098 406.851 409.794C402.129 402.49 405.181 362.288 400.772 362.573C377.424 406.396 407.256 426.938 402.366 427.963C381.133 436.246 380.274 423.027 374.645 423.571C369.016 424.113 360.172 421.502 352.916 405.156C339.622 372.213 356.785 347.556 360.647 341.64C364.512 335.725 368.374 329.811 361.297 332.571C338.418 348.219 335.049 380.829 340.799 393.023C345.397 402.777 340.139 401.031 336.935 398.938C333.408 397.338 322.887 389.763 309.004 372.254C291.651 350.371 318.137 327.588 314.441 325.173C296.814 326.317 299.016 352.017 293.839 348.638Z" fill="#7DBF3D"/>
<path d="M347.231 295.958C358.604 298.465 396.881 319.106 459.002 381.623" stroke="#83AB8F" stroke-linecap="round" stroke-linejoin="round"/>
<path d="M384.801 252.983C374.333 259.858 355.949 279.708 363.216 302.177M454.262 267.762C432.099 272.625 385.818 288.246 378.003 311.835" stroke="#83AB8F" stroke-linecap="round" stroke-linejoin="round"/>
<path d="M470.177 319.3C453.412 316.436 415.51 314.817 399.958 328.288M418.983 397.677C421.383 383.773 424.437 352.504 418.475 343.546M439.721 362.698C441.712 366.109 446.06 375.279 447.521 384.671M388.61 319.821C391.446 360.702 362.166 373.225 378.477 414.469M369.387 307.263C331.75 316.436 323.521 353.256 326.402 373.071" stroke="#83AB8F" stroke-linecap="round" stroke-linejoin="round"/>
<path d="M165.354 354.154C172.336 334.608 239.35 281.554 281.235 379.285C296.59 347.173 320.329 338.796 366.402 345.777C412.475 352.758 395.721 397.435 404.098 412.792C423.644 428.15 419.456 446.3 418.059 444.904C416.663 443.506 408.286 436.527 399.908 436.527C391.533 436.527 370.59 426.754 362.213 422.564C353.838 418.377 334.29 415.583 330.102 422.564C325.915 429.546 331.498 433.733 377.571 439.319C423.644 444.904 423.644 472.827 419.456 499.352C426.436 538.446 398.513 563.575 394.325 556.596C395.721 538.446 383.156 502.146 359.421 495.164C335.688 488.183 324.517 465.846 320.329 463.054C316.142 460.26 313.348 458.864 313.348 465.846C317.538 493.769 352.44 509.125 373.383 534.256C394.325 559.387 378.967 576.142 366.402 578.933C353.838 581.725 339.875 608.252 337.083 601.271C341.271 588.706 335.688 578.933 317.538 557.992C299.388 537.048 303.575 516.106 297.992 521.692C285.425 549.614 323.121 583.121 324.517 591.498C325.915 599.875 304.971 622.214 304.971 609.648C304.971 597.083 285.425 585.914 288.219 590.102C291.011 594.292 296.594 618.025 288.219 616.629C279.842 615.233 265.879 629.194 258.898 638.967C251.919 648.739 250.523 640.362 247.729 626.402C244.938 612.439 200.261 590.102 191.883 584.517C183.506 578.933 176.527 569.16 182.111 556.596C187.696 544.029 243.542 513.314 239.352 507.729C161.169 514.71 159.773 571.952 154.188 566.369C124.869 545.425 141.621 532.86 136.036 525.879C130.452 518.898 126.263 504.937 141.621 481.202C173.731 435.131 221.2 436.527 232.371 436.527C243.54 436.527 254.708 436.527 244.936 429.546C204.448 412.792 158.375 436.527 147.204 454.677C138.271 469.196 136.036 460.727 136.036 454.677C135.106 448.627 136.036 428.15 147.204 394.642C161.167 352.758 214.221 368.114 214.221 361.135C197.467 338.796 165.354 363.927 165.354 354.154Z" fill="#A3CCAF"/>
<path d="M281.231 379.286C287.747 396.504 293.518 465.009 264.479 601.271" stroke="#83AB8F" stroke-linecap="round" stroke-linejoin="round"/>
<path d="M370.585 391.85C352.435 383.939 310.273 376.771 286.816 405.81M411.075 496.56C385.479 471.431 324.791 423.683 286.816 433.735" stroke="#83AB8F" stroke-linecap="round" stroke-linejoin="round"/>
<path d="M356.625 562.179C345.923 537.515 315.3 485.95 284.027 477.015M208.635 562.179C229.11 553.338 273.135 530.348 279.837 514.711M272.856 559.388C270.065 564.973 261.687 578.654 250.519 588.706M285.423 454.677C233.764 493.769 191.881 465.846 151.392 523.088M285.423 418.377C240.746 376.492 184.9 397.436 161.165 418.377" stroke="#83AB8F" stroke-linecap="round" stroke-linejoin="round"/>
<path d="M116.806 260.571L123.204 307.379C123.204 307.379 123.787 315.233 130.477 315.233C137.167 315.233 136.294 306.798 136.294 306.798L129.023 256.219L116.806 260.571Z" fill="white"/>
<path d="M121.887 267.125C144.2 265.585 160.627 240.296 158.579 210.644C156.531 180.989 136.783 158.199 114.47 159.74C92.1601 161.281 75.7329 186.569 77.7809 216.223C79.8288 245.877 99.5767 268.667 121.887 267.125Z" fill="white"/>
<path d="M108.465 264.998C108.465 264.998 108.961 263.264 109.952 262.887C110.942 262.51 135.634 262.887 135.634 262.887L130.421 265.741L112.548 266.614L108.465 264.998Z" fill="#E8E6E6"/>
<path d="M124.14 346.992C123.021 339.677 124.421 335.733 124.421 335.733C124.421 335.733 114.855 325.327 111.482 321.384C108.111 317.442 99.6649 309.567 99.3837 304.223C99.1045 298.879 98.5441 297.469 100.225 296.067C101.917 294.656 100.786 292.975 100.786 292.975L101.734 290.423L113.744 275.577C114.725 274.154 116.148 273.067 117.817 272.604C120.219 271.925 123.827 271.559 127.309 273.736C133.265 277.463 139.675 282.386 141.527 286.856C143.382 291.327 142.736 292.89 142.736 292.89C142.736 292.89 141.636 292.577 138.242 290.454C134.848 288.334 122.848 280.263 122.848 280.263C122.848 280.263 120.607 282.936 119.142 284.756C118.14 285.994 117.29 287.481 117.29 287.481C117.29 287.481 125.811 285.348 127.513 285.209C129.204 285.069 141.788 291.844 144.33 294.819C146.871 297.792 148.002 302.586 148.002 304.988C148.002 307.39 149.134 317.279 149.134 317.279C149.134 317.279 148.573 339.042 149.273 344.406" fill="#F4CDC1"/>
<path d="M200.045 370.337L163.472 451.146L155.941 455.55C155.941 455.55 145.566 458.729 141.774 443.108C137.983 427.487 160.52 345.623 180.914 325.789C203.408 361.148 200.045 370.337 200.045 370.337Z" fill="#F4CDC1"/>
<path d="M184.825 151.914C180.569 152.56 177.531 156.363 177.833 160.651C178.975 176.692 179.083 211.79 181.346 234.252C183.048 251.11 183.425 250.175 184.923 252.996C189.35 261.346 191.083 257.737 195.479 260.894C209.656 271.085 205.939 256.11 205.81 256.756C202.116 275.479 210.96 179.579 207.717 156.826C207.071 152.291 202.837 149.156 198.312 149.845L184.825 151.914Z" fill="#F29372"/>
<path d="M309.52 260.215C309.52 260.215 304.953 269.696 308.724 272.842C312.495 275.988 308.83 276.613 308.83 276.613C308.83 276.613 306.483 277.29 305.18 276.396C306.57 277.054 307.753 277.204 308.208 277.463C308.476 277.615 307.441 279.111 307.195 279.294C305.212 280.802 302.949 281.331 300.558 280.652C297.208 279.694 299.437 270.504 299.437 270.504L309.52 260.215Z" fill="#F29372"/>
<path d="M230.812 122.482C230.812 122.482 250.677 119.53 273.935 124.324C309.929 131.747 325.01 161.189 331.323 210.94C331.054 243.483 300.05 272.302 300.05 272.302C300.05 272.302 214.889 242.515 208.706 212.371C202.521 182.229 230.812 122.482 230.812 122.482Z" fill="#F29372"/>
<path d="M246.846 339.763L295.444 339.525C297.683 339.515 299.483 337.694 299.473 335.454L298.858 211.306C298.858 210.325 298.06 209.54 297.081 209.55L243.917 209.808C242.935 209.808 242.15 210.606 242.16 211.585L242.775 335.733C242.785 337.975 244.606 339.773 246.846 339.763Z" fill="#F4CDC1"/>
<path d="M254.954 279.208L265.663 277.419C294.652 272.065 298.994 260.194 298.919 243.302L298.715 208.322C298.629 191.429 283.417 177.812 264.737 177.899C246.056 177.995 230.973 191.753 231.06 208.644L231.265 250.454C231.34 267.369 236.275 279.294 254.954 279.208Z" fill="#EDB9AB"/>
<path d="M182.895 202.009C183.175 258.783 208.341 274.015 233.981 275.987C263.639 278.281 308.402 241.396 308.196 201.384C308.002 161.373 285.918 139.935 249.16 140.118C212.391 140.301 182.702 161.998 182.895 202.009Z" fill="#F4CDC1"/>
<path d="M317.914 216.144C320.393 222.617 317.149 229.869 310.674 232.346C304.201 234.823 296.951 231.581 294.472 225.106C291.995 218.631 295.237 211.381 301.712 208.904C308.187 206.437 315.437 209.679 317.914 216.144Z" fill="#F4CDC1"/>
<path d="M240.047 172.361C240.047 172.361 196.772 176.477 186.366 182.703C180.258 186.366 172.404 158.777 183.662 141.313C191.547 129.075 212.954 123.032 233.197 130.939C263.943 165.133 240.047 172.361 240.047 172.361Z" fill="#F29372"/>
<path d="M310.481 208.915C310.481 208.915 265.052 200.048 235.943 170.314C235.943 170.314 218.016 155.221 216.422 141.593C215.097 130.271 226.302 112.894 253.922 116.137C276.233 118.755 302.745 132.673 310.889 151.181C322.697 178.028 310.481 208.915 310.481 208.915Z" fill="#F29372"/>
<path d="M220.311 131.693C220.311 131.693 211.046 152.991 235.942 170.314C214.946 162.59 210.775 144.933 220.311 131.693Z" fill="#EA856A"/>
<path d="M309.925 226.14C309.677 226.14 309.429 226.054 309.236 225.881L302.825 220.473L303.569 219.644C304.925 218.125 306.456 217.35 308.169 217.404C311.292 217.456 313.652 220.259 313.748 220.377C314.125 220.829 314.061 221.519 313.608 221.896C313.156 222.273 312.477 222.219 312.09 221.756C312.069 221.734 310.248 219.59 308.115 219.559C307.392 219.548 306.661 219.796 305.981 220.313L310.615 224.223C311.067 224.611 311.131 225.29 310.744 225.742C310.538 226.011 310.238 226.14 309.925 226.14Z" fill="#44292C"/>
<path d="M200.596 241.933C198.68 241.933 197.076 241.223 195.803 239.81C192.582 236.223 191.763 228.025 193.359 215.442C194.532 206.253 196.611 197.937 196.634 197.85C196.784 197.269 197.365 196.924 197.936 197.075C198.517 197.225 198.863 197.807 198.713 198.378C196.438 207.374 191.763 232.098 197.388 238.367C198.421 239.521 199.757 239.952 201.482 239.715C202.063 239.617 202.611 240.038 202.698 240.629C202.784 241.223 202.376 241.76 201.782 241.848C201.384 241.913 200.986 241.933 200.596 241.933Z" fill="#44292C"/>
<path d="M232.645 225.861C233.614 225.861 234.4 225.073 234.4 224.104C234.4 223.133 233.614 222.348 232.645 222.348C231.675 222.348 230.889 223.133 230.889 224.104C230.889 225.073 231.675 225.861 232.645 225.861Z" fill="#D69585"/>
<path d="M246.069 223.017C247.038 223.017 247.825 222.229 247.825 221.261C247.825 220.29 247.038 219.504 246.069 219.504C245.098 219.504 244.312 220.29 244.312 221.261C244.312 222.229 245.098 223.017 246.069 223.017Z" fill="#D69585"/>
<path d="M240.758 233.723C241.729 233.723 242.514 232.937 242.514 231.969C242.514 230.998 241.729 230.212 240.758 230.212C239.789 230.212 239.001 230.998 239.001 231.969C239.001 232.937 239.789 233.723 240.758 233.723Z" fill="#D69585"/>
<path d="M191.551 224.373C192.52 224.373 193.307 223.587 193.307 222.617C193.307 221.648 192.52 220.86 191.551 220.86C190.58 220.86 189.795 221.648 189.795 222.617C189.795 223.587 190.58 224.373 191.551 224.373Z" fill="#D69585"/>
<path d="M188.251 231.333C189.22 231.333 190.008 230.546 190.008 229.577C190.008 228.606 189.22 227.821 188.251 227.821C187.281 227.821 186.495 228.606 186.495 229.577C186.495 230.546 187.281 231.333 188.251 231.333Z" fill="#D69585"/>
<path d="M216.669 250.229C212.919 250.229 211.627 248.354 211.475 248.096C211.163 247.59 211.315 246.921 211.821 246.608C212.315 246.296 212.973 246.448 213.286 246.931C213.34 247.006 214.696 248.708 219.125 247.794C224.425 246.706 226.569 247.481 226.794 247.579C227.344 247.804 227.613 248.429 227.388 248.979C227.161 249.527 226.536 249.798 225.986 249.571C225.986 249.571 224.177 248.956 219.567 249.904C218.456 250.142 217.498 250.229 216.669 250.229Z" fill="#44292C"/>
<path d="M243.752 196.708C243.731 196.708 243.71 196.708 243.677 196.708C242.933 196.665 225.535 195.534 221.475 194.952C216.8 194.284 215.421 190.32 215.367 190.147C215.183 189.587 215.485 188.973 216.046 188.79C216.604 188.607 217.219 188.909 217.402 189.469C217.446 189.587 218.448 192.345 221.777 192.83C225.762 193.401 243.635 194.554 243.817 194.564C244.41 194.607 244.862 195.114 244.819 195.706C244.798 196.266 244.325 196.708 243.752 196.708Z" fill="#44292C"/>
<path d="M189.74 192.582C189.556 192.582 189.373 192.539 189.2 192.442C187.154 191.268 184.579 189.953 184.029 189.867C183.437 189.867 182.985 189.382 182.985 188.79C182.985 188.197 183.502 187.713 184.094 187.713C185.075 187.713 188.004 189.264 190.277 190.567C190.796 190.858 190.977 191.515 190.677 192.032C190.471 192.388 190.117 192.582 189.74 192.582Z" fill="#44292C"/>
<path d="M223.485 212.804C224.706 212.804 225.694 211.415 225.694 209.7C225.694 207.987 224.706 206.598 223.485 206.598C222.266 206.598 221.277 207.987 221.277 209.7C221.277 211.415 222.266 212.804 223.485 212.804Z" fill="#44292C"/>
<path d="M187.594 209.883C188.812 209.883 189.802 208.494 189.802 206.781C189.802 205.068 188.812 203.678 187.594 203.678C186.373 203.678 185.385 205.068 185.385 206.781C185.385 208.494 186.373 209.883 187.594 209.883Z" fill="#44292C"/>
<path d="M365.194 320.781C338.8 420.217 336.279 461.077 339.619 484.154C325.56 490.973 310.856 496.66 294.641 500.69L267.71 495.627C263.627 498.148 259.9 502.898 256.183 506.723C250.117 507.165 243.837 507.392 237.298 507.392C216.01 507.392 197.814 504.04 181.473 498.481C204.192 410.208 188.033 381.067 179.414 334.367C176.258 317.29 189.379 301.594 206.735 301.508L337.358 289.55C354.131 289.465 369.504 304.567 365.194 320.781Z" fill="#F4CDC1"/>
<path d="M351.134 478.271C319.03 495.498 284.805 507.39 237.297 507.39C214.77 507.39 195.701 503.642 178.639 497.49C181.062 469.233 185.93 404.465 183.766 363.194C181.18 314.058 180.47 301.992 206.734 301.508C206.734 301.508 224.628 330.477 277.243 324.8C329.847 319.121 337.355 289.55 337.355 289.55C337.355 289.55 359.882 287.244 368.48 303.458C373.532 312.981 342.722 405.371 351.134 478.271Z" fill="#FE596F"/>
<path d="M314.089 336.715L296.13 363.162L300.666 372.977L313.291 338.719L314.089 336.715Z" fill="#E53E5A"/>
<path d="M313.289 338.717L268.808 441.61C268.808 441.61 284.925 468.802 301.46 457.329C317.998 445.854 370.85 348.435 368.241 312.894C317.771 327.308 313.289 338.717 313.289 338.717Z" fill="#F4CDC1"/>
<path d="M260.71 324.023C260.71 324.023 262.929 412.492 262.391 432.013C262.154 440.792 274.618 462.1 282.602 463.512C290.595 464.923 317.387 456.929 315.512 426.377C313.627 395.825 290.81 351.16 290.81 351.16L260.71 324.023Z" fill="#F4CDC1"/>
<path d="M311.598 396.644L291.938 351.106C291.938 351.106 285.075 322.612 283.696 315.75C282.327 308.887 284.731 308.544 289.19 301.681C293.65 294.819 306.006 263.921 307.385 259.806C308.754 255.692 306.696 252.598 304.64 247.794C302.581 242.989 294.685 234.404 289.19 231.323C286.098 237.16 292.281 239.908 296.052 245.735C299.823 251.564 295.708 254.323 291.938 260.839C288.5 253.287 274.431 230.633 267.569 226.852C262.56 229.523 267.946 235.114 271.404 243.625C271.469 243.775 271.275 243.917 271.156 243.808C267.083 239.939 258.315 236.806 258.315 236.806C258.315 236.806 256.258 239.898 257.281 243.669C258.304 247.439 261.396 246.414 260.027 247.783C258.66 249.152 260.027 251.564 265.177 259.796C270.327 268.037 267.235 279.358 260.373 289.658C253.51 299.956 258.681 311.323 259.004 312.658C259.779 315.964 260.373 320.275 260.825 325.208" fill="#F4CDC1"/>
<path d="M311.602 397.723C311.181 397.723 310.783 397.475 310.61 397.075L290.885 351.354C290.82 351.075 284 322.763 282.633 315.954C281.502 310.31 282.816 308.575 285.412 305.106C286.241 303.998 287.189 302.738 288.277 301.077C292.652 294.354 305.052 263.35 306.354 259.44C307.366 256.413 306.235 253.925 304.662 250.488C304.329 249.767 303.985 249 303.639 248.194C301.743 243.765 294.752 236.171 289.677 232.852C288.783 235.502 290.325 237.356 293.093 240.371C294.354 241.74 295.775 243.292 296.96 245.133C300.279 250.25 298.091 253.46 295.343 257.513C294.579 258.642 293.706 259.925 292.877 261.358L291.833 263.167L290.97 261.26C287.587 253.817 274.239 232.485 267.583 228.09C265.762 229.415 266.635 231.548 269.285 236.654C270.287 238.583 271.418 240.771 272.408 243.194C272.635 243.744 272.441 244.358 271.956 244.681C271.47 245.015 270.835 244.96 270.416 244.563C267.291 241.59 261.097 239.015 258.812 238.121C258.35 239.154 257.714 241.138 258.318 243.356C258.76 244.994 259.6 245.413 260.268 245.758C260.71 245.985 261.312 246.285 261.42 247.008C261.539 247.752 260.989 248.31 260.775 248.517C259.966 249.325 262.035 252.74 266.075 259.202C270.954 267.013 269.197 278.325 261.247 290.24C257.381 296.046 256.875 303.21 259.75 311.527C259.891 311.938 259.987 312.227 260.031 312.39C260.775 315.556 261.4 319.833 261.872 325.09C261.927 325.683 261.495 326.21 260.904 326.265C260.31 326.329 259.783 325.877 259.729 325.296C259.254 320.135 258.652 315.967 257.929 312.885C257.898 312.767 257.822 312.54 257.714 312.227C254.602 303.244 255.193 295.433 259.46 289.033C266.914 277.85 268.66 267.39 264.243 260.333C259.352 252.502 257.466 249.485 258.856 247.45C258.027 246.985 256.81 246.071 256.216 243.917C255.075 239.715 257.293 236.31 257.391 236.171L257.854 235.471L258.652 235.75C258.943 235.858 264.543 237.873 268.918 240.706C268.391 239.617 267.852 238.594 267.356 237.625C264.75 232.604 262.508 228.283 267.054 225.85L267.572 225.581L268.079 225.86C274.952 229.642 287.641 249.927 292.037 258.546C292.564 257.727 293.07 256.973 293.556 256.273C296.216 252.352 297.683 250.196 295.15 246.275C294.062 244.583 292.758 243.173 291.497 241.804C288.525 238.573 285.725 235.513 288.235 230.763L288.752 229.781L289.71 230.321C295.237 233.423 303.414 242.16 305.622 247.31C305.966 248.106 306.3 248.85 306.625 249.56C308.327 253.3 309.673 256.252 308.402 260.085C307.054 264.138 294.656 295.185 290.087 302.208C288.966 303.933 287.954 305.279 287.145 306.356C284.658 309.675 283.816 310.783 284.754 315.481C286.068 322.052 292.533 348.931 292.964 350.708L312.591 396.171C312.829 396.721 312.581 397.356 312.031 397.581C311.891 397.69 311.741 397.723 311.602 397.723Z" fill="#44292C"/>
<path d="M285.389 270.311C285.325 270.311 285.26 270.298 285.196 270.288C284.612 270.181 284.214 269.621 284.323 269.038C284.333 268.963 285.669 261.163 281.941 256.542C277.946 251.575 270.706 244.454 270.629 244.379C270.21 243.959 270.2 243.281 270.619 242.85C271.039 242.429 271.718 242.419 272.137 242.84C272.439 243.129 279.539 250.121 283.623 255.186C287.964 260.581 286.508 269.061 286.443 269.415C286.358 269.944 285.906 270.311 285.389 270.311Z" fill="#44292C"/>
<path d="M276.751 277.377C276.537 274.156 276.309 271.031 275.824 268.058C275.286 265.086 274.522 262.294 272.861 260.204C271.968 258.944 271.009 257.748 270.051 256.552C269.114 255.336 268.101 254.181 267.109 253.019C266.087 251.888 265.064 250.756 263.92 249.765C262.801 248.752 261.616 247.838 260.074 247.461L260.043 247.45C259.989 247.438 259.957 247.386 259.968 247.321C259.978 247.277 260.022 247.244 260.064 247.244C261.724 247.179 263.22 247.956 264.545 248.806C265.882 249.679 267.109 250.702 268.274 251.779C270.589 253.967 272.668 256.369 274.586 258.9C275.534 260.194 276.255 261.669 276.707 263.2C277.139 264.74 277.397 266.323 277.516 267.906C277.732 271.086 277.516 274.273 276.955 277.408C276.945 277.463 276.891 277.506 276.839 277.496C276.784 277.483 276.751 277.442 276.751 277.398V277.377Z" fill="#44292C"/>
<path d="M295.224 269.523C294.772 269.523 294.351 269.244 294.201 268.79L293.026 265.321C292.941 265.073 292.843 264.838 292.724 264.611L290.203 259.623C289.935 259.094 290.151 258.448 290.679 258.179C291.206 257.911 291.854 258.125 292.122 258.652L294.643 263.642C294.804 263.965 294.945 264.298 295.064 264.631L296.237 268.1C296.431 268.661 296.131 269.275 295.558 269.469C295.462 269.513 295.343 269.523 295.224 269.523Z" fill="#44292C"/>
<path d="M318.216 347.756L312.023 396.331L300.237 368.85L313.293 338.719L318.216 347.756Z" fill="#EDB9AB"/>
<path d="M371.12 342.273C371.12 342.273 373.556 310.298 366.489 300.615C359.422 290.929 355.76 296.423 355.76 296.423L312.818 326.275L313.291 338.719L371.12 342.273Z" fill="#FE596F"/>
<path d="M170.783 361.115C170.783 361.115 165.774 371.996 164.029 376.25C159.137 388.144 160.785 411.112 161.324 413.008C154.031 383.275 154.495 378.814 154.495 378.814L160.808 361.535L170.783 361.115Z" fill="#EDB9AB"/>
<path d="M105.306 289.496C105.306 289.496 105.435 275.523 105.564 272.141C105.696 268.758 109.477 266.15 110.908 264.848C112.342 263.543 135.277 264.977 137.237 265.106C139.187 265.235 138.542 268.758 134.631 269.931C130.721 271.106 119.408 272.302 119.408 272.302" fill="#F4CDC1"/>
<path d="M149.255 345.494C148.727 345.494 148.265 345.096 148.188 344.556C147.488 339.267 147.994 318.971 148.038 317.334C147.93 316.342 146.907 307.348 146.907 304.988C146.907 302.769 145.819 298.233 143.492 295.519C142.867 294.786 141.627 293.838 140.109 292.825C139.463 292.469 138.655 291.996 137.652 291.371C137.232 291.113 136.694 290.767 136.059 290.358C132.267 288.204 128.367 286.329 127.536 286.286C126.255 286.394 119.877 287.946 117.53 288.527L115.084 289.142L116.334 286.954C116.365 286.89 117.227 285.381 118.284 284.088C119.759 282.256 122 279.586 122 279.586L122.623 278.842L123.432 279.381C123.54 279.456 132.998 285.813 137.415 288.677C138.569 289.346 139.7 290.046 140.723 290.713C141.1 290.929 141.423 291.102 141.692 291.252C141.584 290.423 141.284 289.129 140.507 287.288C139.052 283.798 134.15 279.317 126.707 274.663C123.561 272.702 120.275 273.036 118.077 273.661C116.698 274.058 115.461 274.963 114.598 276.213L106.261 286.577C105.884 287.04 105.205 287.115 104.742 286.738C104.277 286.361 104.202 285.683 104.58 285.219L112.875 274.921C113.963 273.325 115.621 272.108 117.496 271.581C120.115 270.838 124.046 270.45 127.861 272.831C133.398 276.288 140.432 281.461 142.511 286.448C144.063 290.165 143.988 292.115 143.825 292.911C144.386 293.365 144.827 293.773 145.13 294.119C147.844 297.286 149.061 302.381 149.061 304.988C149.061 307.304 150.171 317.065 150.182 317.161L150.192 317.238V317.313C150.192 317.527 149.642 339.052 150.321 344.267C150.396 344.858 149.988 345.398 149.394 345.473C149.352 345.483 149.309 345.494 149.255 345.494ZM123.044 281.696C122.28 282.623 120.955 284.217 119.973 285.436C119.877 285.554 119.79 285.661 119.705 285.779C122.032 285.219 125.232 284.475 126.815 284.217C125.221 283.163 123.863 282.246 123.044 281.696Z" fill="#44292C"/>
<path d="M107.087 292.523C106.656 292.523 106.245 292.265 106.085 291.833C105.868 291.283 106.139 290.661 106.699 290.444L119.335 285.521C119.885 285.306 120.51 285.575 120.724 286.136C120.941 286.683 120.67 287.308 120.112 287.525L107.474 292.448C107.345 292.502 107.216 292.523 107.087 292.523Z" fill="#44292C"/>
<path d="M122.807 310.902C122.807 310.902 123.787 322.956 130.478 322.483C136.284 322.073 136.295 314.048 136.295 314.048L135.714 308.564L125.695 304.696L122.257 306.839L122.807 310.902Z" fill="white"/>
<path d="M122.806 310.902L126.468 308.985L136.283 314.048L135.647 308.575L124.399 305.14L122.299 306.754L122.806 310.902Z" fill="#E8E6E6"/>
<path d="M143.508 313.433C141.731 313.433 139.695 312.788 137.443 311.517C131.291 308.038 127.241 306.529 126.035 306.119C125.291 306.475 123.493 307.379 121.414 308.823C118.547 310.804 115.316 312.702 115.283 312.723C114.766 313.025 114.11 312.852 113.808 312.336C113.506 311.819 113.679 311.161 114.195 310.858C114.227 310.838 117.385 308.986 120.185 307.046C123.104 305.021 125.454 304.008 125.55 303.965L125.906 303.813L126.283 303.921C126.466 303.975 130.893 305.321 138.51 309.631C141.075 311.086 143.26 311.581 144.845 311.075C145.587 310.838 146.072 310.406 146.352 310.073C145.652 309.179 144.327 307.498 143.573 306.669C143.164 306.217 142.345 305.181 141.408 303.986C140.191 302.446 138.177 299.902 137.616 299.419C137.412 299.342 137.077 299.181 136.398 298.879C134.06 297.813 127.866 294.979 125.614 294.904C125.593 294.904 125.56 294.904 125.529 294.904C123.277 294.904 114.358 297.813 108.831 299.796C108.27 299.99 107.656 299.708 107.452 299.148C107.248 298.59 107.537 297.975 108.097 297.771C109.562 297.242 122.502 292.598 125.679 292.75C128.039 292.836 132.877 294.904 137.281 296.919C137.875 297.188 138.283 297.381 138.435 297.436C139.016 297.629 139.62 298.265 143.089 302.661C143.962 303.771 144.791 304.827 145.156 305.225C146.277 306.452 148.42 309.254 148.518 309.373L148.906 309.879L148.658 310.461C148.627 310.536 147.818 312.356 145.566 313.111C144.92 313.327 144.241 313.433 143.508 313.433Z" fill="#44292C"/>
<path d="M195.964 302.617C195.964 302.617 185.666 302.304 177.554 311.979C169.441 321.654 158.647 361.525 158.647 361.525L190.654 366.577L214.677 361.902C214.677 361.889 197.829 306.679 195.964 302.617Z" fill="#FE596F"/>
<path d="M148.237 342.81C148.237 342.81 153.333 376.337 154.55 382.164C155.769 387.994 158.613 405.952 161.381 416.069C164.14 426.194 166.012 445.606 163.567 450.208C161.11 454.808 155.756 459.44 148.927 461.346C146.773 461.95 130.85 462.035 125.938 453.137C121.025 444.239 118.525 435.06 121.565 414.829C126.95 378.9 122.771 346.71 124.3 341.498C125.829 336.294 148.237 342.81 148.237 342.81Z" fill="#F4CDC1"/>
<path d="M160.694 413.052C160.229 413.052 159.798 412.75 159.659 412.288C156.394 401.386 148.519 346.883 148.186 344.569C148.1 343.975 148.509 343.438 149.102 343.35C149.684 343.275 150.234 343.673 150.319 344.267C150.404 344.827 158.506 400.933 161.727 411.673C161.9 412.244 161.577 412.848 161.006 413.019C160.909 413.042 160.8 413.052 160.694 413.052Z" fill="#44292C"/>
<path d="M131.13 254.409C130.732 254.409 130.345 254.181 130.162 253.794C129.901 253.256 130.128 252.611 130.668 252.363C139.274 248.246 144.532 240.888 146.741 229.867C146.86 229.286 147.42 228.898 148.012 229.027C148.593 229.146 148.97 229.717 148.851 230.298C146.503 242.031 140.857 249.884 131.593 254.313C131.443 254.377 131.293 254.409 131.13 254.409Z" fill="#B6B6B6"/>
<path d="M147.999 198.82C147.504 198.82 147.062 198.475 146.943 197.968C143.162 180.689 127.714 173.837 127.562 173.772C127.014 173.535 126.766 172.9 127.004 172.361C127.239 171.812 127.874 171.564 128.414 171.801C129.093 172.092 145.027 179.127 149.056 197.516C149.185 198.098 148.818 198.669 148.237 198.798C148.149 198.809 148.074 198.82 147.999 198.82Z" fill="#B6B6B6"/>
<path d="M130.333 319.046C129.018 319.046 127.866 318.573 126.918 317.646C124.106 314.887 124.137 308.833 124.137 308.575C124.15 307.983 124.623 307.508 125.216 307.508H125.227C125.818 307.519 126.304 308.004 126.293 308.596C126.281 310.094 126.637 314.35 128.427 316.104C128.985 316.654 129.633 316.902 130.419 316.881C131.033 316.871 131.506 317.333 131.529 317.925C131.55 318.519 131.077 319.015 130.483 319.035C130.439 319.046 130.387 319.046 130.333 319.046Z" fill="#B6B6B6"/>
</g>
</svg>
