<svg width="567" height="384" viewBox="0 0 567 384" fill="none" xmlns="http://www.w3.org/2000/svg">
<g clip-path="url(#clip0_146_1234)">
<path d="M159.332 160.423C199.54 163.773 202.147 201.842 198.424 220.456C208.194 235.814 194.238 272.114 174.692 272.114C183.074 248.379 170.503 237.21 166.311 244.191C180.269 269.321 157.938 290.264 153.751 286.075C162.128 266.529 146.769 253.964 145.374 260.944C163.524 291.66 116.055 320.979 114.657 312.602C124.711 290.264 117.913 282.817 113.257 281.887C113.724 288.402 112.982 304.504 106.282 316.789C97.9048 332.148 46.2465 339.129 67.1882 326.562C83.9423 316.51 81.6152 308.412 78.359 305.621C71.3777 320.979 60.209 325.166 43.4548 327.96C30.0507 330.194 9.01526 324.237 0.173589 320.979C-0.290994 316.789 -0.105621 306.737 4.36105 300.037C9.94646 291.66 23.9069 295.848 37.8694 295.848C49.0382 295.848 44.384 291.194 40.6611 288.866C38.334 287.937 31.1694 286.633 21.1173 288.866C11.0631 291.102 10.4132 287.937 11.3423 286.075C11.809 283.283 13.8569 275.744 18.3235 267.925C22.7923 260.106 34.1465 258.152 39.2652 258.152C46.7131 258.152 63.8382 259.269 72.7736 263.737C83.9423 269.321 90.9215 267.925 74.1694 258.152C57.4173 248.379 26.7007 251.171 26.7007 248.379C26.7007 245.587 30.8902 227.437 46.2465 220.456C61.6048 213.475 90.9215 246.983 107.678 241.398C97.9048 241.398 86.7361 220.456 65.7903 212.079C58.8111 207.891 49.0381 216.269 51.8298 206.496C54.6215 196.723 65.7902 181.364 90.9215 178.573C117.449 178.573 125.826 221.852 142.58 213.475C125.826 206.496 120.238 178.573 113.257 171.591C106.278 164.61 110.465 161.819 120.238 160.423C157.934 156.233 164.915 199.514 166.311 199.514C167.707 199.514 167.709 179.969 159.332 171.591C150.955 163.214 152.351 160.423 159.332 160.423Z" fill="#A3CCAF"/>
<path d="M196.857 218.571C129.842 200.421 115.88 282.796 44.6777 307.927" stroke="#83AB8F" stroke-linecap="round"/>
<path d="M198.255 218.775C208.624 222.244 218.332 231.988 227.394 246.458C250.282 282.042 268.428 345.369 282.338 413.55C298.563 489.577 310.44 572.471 318.322 632.033H314.182C308.584 575.598 298.222 491.408 282.338 413.55C267.665 344.794 249.436 281.65 227.394 246.458C218.419 232.506 208.717 222.819 198.255 218.775Z" fill="#58AE09"/>
<path d="M227.394 246.458C218.332 231.988 208.624 222.244 198.255 218.775C208.717 222.819 218.419 232.506 227.394 246.458ZM227.394 246.458C250.282 282.042 268.428 345.369 282.338 413.55M227.394 246.458C249.436 281.65 267.665 344.794 282.338 413.55M282.338 413.55C298.563 489.577 310.44 572.471 318.322 632.033H314.182C308.584 575.598 298.222 491.408 282.338 413.55Z" stroke="#83AB8F" stroke-width="1.5"/>
<path d="M443.973 218.775C380.488 240.01 341.846 496.458 323.904 632.033H328.044C340.465 506.804 376.348 244.91 443.973 218.775Z" stroke="#83AB8F" stroke-width="2"/>
<path d="M375.088 253.638C367.153 243.177 362.238 189.334 428.486 200.959C416.79 181.719 420.565 166.248 440.2 144.263C459.836 122.277 477.703 146.604 488.734 147.481C503.628 142.442 511.792 150.94 510.569 151.196C509.346 151.452 502.753 153.473 499.855 157.911C496.957 162.346 484.536 170.056 479.419 173.044C474.305 176.031 466.063 185.417 468.311 190.05C470.559 194.684 474.709 193.175 493.605 170.706C512.501 148.238 527.29 157.898 539.89 169.292C563.007 179.119 566.657 202.6 561.511 202.404C552.382 195.386 528.811 189.484 516.903 199.638C504.996 209.794 489.3 207.981 486.373 209.234C483.446 210.486 481.74 211.481 485.438 213.896C501.675 221.338 521.882 208.165 542.436 205.767C562.99 203.369 566.551 217.298 563.684 224.919C560.815 232.54 570.034 249.111 565.371 248.175C560.165 241.611 553.057 241.186 535.688 243.554C518.317 245.921 508.675 236.459 509.7 241.348C520.142 257.663 550.93 249.29 555.848 251.448C560.767 253.606 565.355 272.425 558.698 268.079C552.044 263.731 539.367 270.221 542.55 270.19C545.736 270.161 560.238 275.413 556.6 279.367C552.963 283.321 555.528 295.544 558.288 302.621C561.048 309.7 556.13 307.542 547.769 304.19C539.411 300.84 512.123 316.773 506.269 319.277C500.413 321.781 492.823 322.098 488.1 314.794C483.378 307.49 486.43 267.288 482.021 267.573C458.673 311.396 488.505 331.938 483.615 332.963C462.382 341.246 461.523 328.027 455.894 328.571C450.265 329.113 441.421 326.502 434.165 310.156C420.871 277.213 438.034 252.556 441.896 246.64C445.761 240.725 449.623 234.811 442.546 237.571C419.667 253.219 416.298 285.829 422.048 298.023C426.646 307.777 421.388 306.031 418.184 303.938C414.657 302.338 404.136 294.763 390.253 277.254C372.9 255.371 399.386 232.588 395.69 230.173C378.063 231.317 380.265 257.017 375.088 253.638Z" fill="#7DBF3D"/>
<path d="M428.48 200.958C439.853 203.465 478.13 224.106 540.251 286.623" stroke="#83AB8F" stroke-linecap="round" stroke-linejoin="round"/>
<path d="M466.05 157.983C455.582 164.858 437.198 184.708 444.465 207.177M535.511 172.762C513.348 177.625 467.067 193.246 459.252 216.835" stroke="#83AB8F" stroke-linecap="round" stroke-linejoin="round"/>
<path d="M551.426 224.3C534.661 221.436 496.759 219.817 481.207 233.288M500.232 302.677C502.632 288.773 505.686 257.504 499.724 248.546M520.97 267.698C522.961 271.109 527.309 280.279 528.77 289.671M469.859 224.821C472.695 265.702 443.415 278.225 459.726 319.469M450.636 212.263C412.999 221.436 404.77 258.256 407.651 278.071" stroke="#83AB8F" stroke-linecap="round" stroke-linejoin="round"/>
<path d="M246.603 259.154C253.585 239.608 320.599 186.554 362.485 284.285C377.839 252.173 401.578 243.796 447.651 250.777C493.724 257.758 476.97 302.435 485.347 317.792C504.893 333.15 500.705 351.3 499.308 349.904C497.912 348.506 489.535 341.527 481.157 341.527C472.782 341.527 451.839 331.754 443.462 327.564C435.087 323.377 415.539 320.583 411.351 327.564C407.164 334.546 412.747 338.733 458.82 344.319C504.893 349.904 504.893 377.827 500.705 404.352C507.685 443.446 479.762 468.575 475.574 461.596C476.97 443.446 464.405 407.146 440.67 400.164C416.937 393.183 405.766 370.846 401.578 368.054C397.391 365.26 394.597 363.864 394.597 370.846C398.787 398.769 433.689 414.125 454.632 439.256C475.574 464.387 460.216 481.142 447.651 483.933C435.087 486.725 421.124 513.252 418.332 506.271C422.52 493.706 416.937 483.933 398.787 462.992C380.637 442.048 384.824 421.106 379.241 426.692C366.674 454.614 404.37 488.121 405.766 496.498C407.164 504.875 386.22 527.214 386.22 514.648C386.22 502.083 366.674 490.914 369.468 495.102C372.26 499.292 377.843 523.025 369.468 521.629C361.091 520.233 347.128 534.194 340.147 543.967C333.168 553.739 331.772 545.362 328.978 531.402C326.187 517.439 281.51 495.102 273.132 489.517C264.755 483.933 257.776 474.16 263.36 461.596C268.945 449.029 324.791 418.314 320.601 412.729C242.418 419.71 241.022 476.952 235.437 471.369C206.118 450.425 222.87 437.86 217.285 430.879C211.701 423.898 207.512 409.937 222.87 386.202C254.98 340.131 302.449 341.527 313.62 341.527C324.789 341.527 335.957 341.527 326.185 334.546C285.697 317.792 239.624 341.527 228.453 359.677C219.52 374.196 217.285 365.727 217.285 359.677C216.355 353.627 217.285 333.15 228.453 299.642C242.416 257.758 295.47 273.114 295.47 266.135C278.716 243.796 246.603 268.927 246.603 259.154Z" fill="#A3CCAF"/>
<path d="M362.48 284.286C368.996 301.504 374.767 370.009 345.728 506.271" stroke="#83AB8F" stroke-linecap="round" stroke-linejoin="round"/>
<path d="M451.834 296.85C433.684 288.94 391.522 281.771 368.065 310.81M492.324 401.56C466.728 376.431 406.04 328.683 368.065 338.735" stroke="#83AB8F" stroke-linecap="round" stroke-linejoin="round"/>
<path d="M437.874 467.179C427.172 442.515 396.549 390.95 365.276 382.015M289.884 467.179C310.359 458.338 354.384 435.348 361.086 419.711M354.105 464.388C351.314 469.973 342.936 483.654 331.768 493.706M366.672 359.677C315.014 398.769 273.13 370.846 232.641 428.088M366.672 323.377C321.995 281.492 266.149 302.436 242.414 323.377" stroke="#83AB8F" stroke-linecap="round" stroke-linejoin="round"/>
<path d="M198.055 165.571L204.453 212.379C204.453 212.379 205.036 220.233 211.726 220.233C218.416 220.233 217.543 211.798 217.543 211.798L210.272 161.219L198.055 165.571Z" fill="white"/>
<path d="M203.136 172.125C225.449 170.585 241.876 145.296 239.828 115.644C237.78 85.989 218.032 63.1992 195.72 64.7403C173.409 66.2811 156.982 91.5694 159.03 121.223C161.078 150.877 180.826 173.667 203.136 172.125Z" fill="white"/>
<path d="M189.714 169.998C189.714 169.998 190.21 168.264 191.201 167.887C192.191 167.51 216.883 167.887 216.883 167.887L211.67 170.741L193.797 171.614L189.714 169.998Z" fill="#E8E6E6"/>
<path d="M205.389 251.992C204.27 244.677 205.67 240.733 205.67 240.733C205.67 240.733 196.104 230.327 192.731 226.384C189.36 222.442 180.914 214.567 180.633 209.223C180.354 203.879 179.793 202.469 181.474 201.067C183.166 199.656 182.035 197.975 182.035 197.975L182.983 195.423L194.993 180.577C195.974 179.154 197.397 178.067 199.066 177.604C201.468 176.925 205.076 176.559 208.558 178.736C214.514 182.463 220.924 187.386 222.776 191.856C224.631 196.327 223.985 197.89 223.985 197.89C223.985 197.89 222.885 197.577 219.491 195.454C216.097 193.334 204.097 185.263 204.097 185.263C204.097 185.263 201.856 187.936 200.391 189.756C199.389 190.994 198.539 192.481 198.539 192.481C198.539 192.481 207.06 190.348 208.762 190.209C210.453 190.069 223.037 196.844 225.579 199.819C228.12 202.792 229.251 207.586 229.251 209.988C229.251 212.39 230.383 222.279 230.383 222.279C230.383 222.279 229.822 244.042 230.522 249.406" fill="#F4CDC1"/>
<path d="M281.294 275.337L244.721 356.146L237.19 360.55C237.19 360.55 226.815 363.729 223.023 348.108C219.232 332.487 241.769 250.623 262.163 230.789C284.657 266.148 281.294 275.337 281.294 275.337Z" fill="#F4CDC1"/>
<path d="M266.074 56.9137C261.818 57.5602 258.78 61.3629 259.082 65.6506C260.224 81.6916 260.332 116.79 262.595 139.252C264.297 156.11 264.674 155.175 266.172 157.996C270.599 166.346 272.332 162.737 276.728 165.894C290.905 176.085 287.188 161.11 287.059 161.756C283.366 180.479 292.209 84.5787 288.966 61.8262C288.32 57.2908 284.086 54.1558 279.561 54.8454L266.074 56.9137Z" fill="#F29372"/>
<path d="M390.769 165.215C390.769 165.215 386.202 174.696 389.973 177.842C393.744 180.988 390.079 181.613 390.079 181.613C390.079 181.613 387.732 182.29 386.429 181.396C387.819 182.054 389.002 182.204 389.457 182.463C389.725 182.615 388.69 184.111 388.444 184.294C386.461 185.802 384.198 186.331 381.807 185.652C378.457 184.694 380.686 175.504 380.686 175.504L390.769 165.215Z" fill="#F29372"/>
<path d="M312.061 27.482C312.061 27.482 331.926 24.5302 355.184 29.3241C391.178 36.7468 406.259 66.1893 412.572 115.94C412.303 148.483 381.299 177.302 381.299 177.302C381.299 177.302 296.138 147.515 289.955 117.371C283.77 87.2289 312.061 27.482 312.061 27.482Z" fill="#F29372"/>
<path d="M328.095 244.763L376.693 244.525C378.932 244.515 380.732 242.694 380.722 240.454L380.107 116.306C380.107 115.325 379.309 114.54 378.33 114.55L325.166 114.808C324.184 114.808 323.399 115.606 323.409 116.585L324.024 240.733C324.034 242.975 325.855 244.773 328.095 244.763Z" fill="#F4CDC1"/>
<path d="M336.203 184.208L346.912 182.419C375.901 177.065 380.243 165.194 380.168 148.302L379.964 113.322C379.878 96.4294 364.666 82.8124 345.986 82.8986C327.305 82.9955 312.222 96.7528 312.309 113.644L312.514 155.454C312.589 172.369 317.524 184.294 336.203 184.208Z" fill="#EDB9AB"/>
<path d="M264.144 107.009C264.424 163.783 289.59 179.015 315.23 180.987C344.888 183.281 389.651 146.396 389.445 106.384C389.251 66.3731 367.167 44.935 330.409 45.1181C293.64 45.3012 263.951 66.9979 264.144 107.009Z" fill="#F4CDC1"/>
<path d="M399.163 121.144C401.642 127.617 398.398 134.869 391.923 137.346C385.45 139.823 378.2 136.581 375.721 130.106C373.244 123.631 376.486 116.381 382.961 113.904C389.436 111.437 396.686 114.679 399.163 121.144Z" fill="#F4CDC1"/>
<path d="M321.296 77.3611C321.296 77.3611 278.021 81.4766 267.615 87.7032C261.507 91.3661 253.653 63.7765 264.911 46.3134C272.796 34.0753 294.203 28.0318 314.446 35.939C345.192 70.1326 321.296 77.3611 321.296 77.3611Z" fill="#F29372"/>
<path d="M391.73 113.915C391.73 113.915 346.301 105.048 317.192 75.3143C317.192 75.3143 299.265 60.2214 297.671 46.5935C296.346 35.2712 307.551 17.8943 335.171 21.137C357.482 23.7547 383.994 37.6735 392.138 56.1814C403.946 83.0279 391.73 113.915 391.73 113.915Z" fill="#F29372"/>
<path d="M301.56 36.693C301.56 36.693 292.295 57.9913 317.191 75.3142C296.195 67.5901 292.024 49.933 301.56 36.693Z" fill="#EA856A"/>
<path d="M391.174 131.14C390.926 131.14 390.678 131.054 390.485 130.881L384.074 125.473L384.818 124.644C386.174 123.125 387.705 122.35 389.418 122.404C392.541 122.456 394.901 125.259 394.997 125.377C395.374 125.829 395.31 126.519 394.857 126.896C394.405 127.273 393.726 127.219 393.339 126.756C393.318 126.734 391.497 124.59 389.364 124.559C388.641 124.548 387.91 124.796 387.23 125.313L391.864 129.223C392.316 129.611 392.38 130.29 391.993 130.742C391.787 131.011 391.487 131.14 391.174 131.14Z" fill="#44292C"/>
<path d="M281.845 146.933C279.929 146.933 278.325 146.223 277.052 144.81C273.831 141.223 273.012 133.025 274.608 120.442C275.781 111.253 277.86 102.937 277.883 102.85C278.033 102.269 278.614 101.924 279.185 102.075C279.766 102.225 280.112 102.807 279.962 103.378C277.687 112.374 273.012 137.098 278.637 143.367C279.67 144.521 281.006 144.952 282.731 144.715C283.312 144.617 283.86 145.038 283.947 145.629C284.033 146.223 283.625 146.76 283.031 146.848C282.633 146.913 282.235 146.933 281.845 146.933Z" fill="#44292C"/>
<path d="M313.894 130.861C314.863 130.861 315.649 130.073 315.649 129.104C315.649 128.133 314.863 127.348 313.894 127.348C312.924 127.348 312.138 128.133 312.138 129.104C312.138 130.073 312.924 130.861 313.894 130.861Z" fill="#D69585"/>
<path d="M327.318 128.017C328.287 128.017 329.074 127.229 329.074 126.261C329.074 125.29 328.287 124.504 327.318 124.504C326.347 124.504 325.562 125.29 325.562 126.261C325.562 127.229 326.347 128.017 327.318 128.017Z" fill="#D69585"/>
<path d="M322.007 138.723C322.978 138.723 323.763 137.937 323.763 136.969C323.763 135.998 322.978 135.212 322.007 135.212C321.038 135.212 320.25 135.998 320.25 136.969C320.25 137.937 321.038 138.723 322.007 138.723Z" fill="#D69585"/>
<path d="M272.8 129.373C273.769 129.373 274.556 128.587 274.556 127.617C274.556 126.648 273.769 125.86 272.8 125.86C271.829 125.86 271.044 126.648 271.044 127.617C271.044 128.587 271.829 129.373 272.8 129.373Z" fill="#D69585"/>
<path d="M269.5 136.333C270.469 136.333 271.257 135.546 271.257 134.577C271.257 133.606 270.469 132.821 269.5 132.821C268.53 132.821 267.744 133.606 267.744 134.577C267.744 135.546 268.53 136.333 269.5 136.333Z" fill="#D69585"/>
<path d="M297.918 155.229C294.168 155.229 292.876 153.354 292.724 153.096C292.412 152.59 292.564 151.921 293.07 151.608C293.564 151.296 294.222 151.448 294.535 151.931C294.589 152.006 295.945 153.708 300.374 152.794C305.674 151.706 307.818 152.481 308.043 152.579C308.593 152.804 308.862 153.429 308.637 153.979C308.41 154.527 307.785 154.798 307.235 154.571C307.235 154.571 305.426 153.956 300.816 154.904C299.705 155.142 298.747 155.229 297.918 155.229Z" fill="#44292C"/>
<path d="M325.001 101.708C324.98 101.708 324.959 101.708 324.926 101.708C324.182 101.665 306.784 100.534 302.724 99.9521C298.049 99.2841 296.67 95.3197 296.616 95.1475C296.432 94.5872 296.734 93.9731 297.295 93.79C297.853 93.6068 298.468 93.9085 298.651 94.4687C298.695 94.5873 299.697 97.345 303.026 97.8297C307.011 98.4008 324.884 99.5535 325.066 99.5643C325.659 99.6075 326.111 100.114 326.068 100.706C326.047 101.266 325.574 101.708 325.001 101.708Z" fill="#44292C"/>
<path d="M270.989 97.582C270.805 97.582 270.622 97.5389 270.449 97.4418C268.403 96.2677 265.828 94.9533 265.278 94.8672C264.686 94.8672 264.234 94.3824 264.234 93.7899C264.234 93.1972 264.751 92.7126 265.343 92.7126C266.324 92.7126 269.253 94.2639 271.526 95.5674C272.045 95.8583 272.226 96.5154 271.926 97.0324C271.72 97.3881 271.366 97.582 270.989 97.582Z" fill="#44292C"/>
<path d="M304.734 117.804C305.955 117.804 306.943 116.415 306.943 114.7C306.943 112.987 305.955 111.598 304.734 111.598C303.515 111.598 302.526 112.987 302.526 114.7C302.526 116.415 303.515 117.804 304.734 117.804Z" fill="#44292C"/>
<path d="M268.843 114.883C270.061 114.883 271.051 113.494 271.051 111.781C271.051 110.068 270.061 108.678 268.843 108.678C267.622 108.678 266.634 110.068 266.634 111.781C266.634 113.494 267.622 114.883 268.843 114.883Z" fill="#44292C"/>
<path d="M446.443 225.781C420.049 325.217 417.528 366.077 420.868 389.154C406.809 395.973 392.105 401.66 375.89 405.69L348.959 400.627C344.876 403.148 341.149 407.898 337.432 411.723C331.366 412.165 325.086 412.392 318.547 412.392C297.259 412.392 279.063 409.04 262.722 403.481C285.441 315.208 269.282 286.067 260.663 239.367C257.507 222.29 270.628 206.594 287.984 206.508L418.607 194.55C435.38 194.465 450.753 209.567 446.443 225.781Z" fill="#F4CDC1"/>
<path d="M432.383 383.271C400.279 400.498 366.054 412.39 318.546 412.39C296.019 412.39 276.95 408.642 259.888 402.49C262.311 374.233 267.179 309.465 265.015 268.194C262.429 219.058 261.719 206.992 287.984 206.508C287.984 206.508 305.877 235.477 358.492 229.8C411.096 224.121 418.604 194.55 418.604 194.55C418.604 194.55 441.131 192.244 449.729 208.458C454.781 217.981 423.971 310.371 432.383 383.271Z" fill="#FE596F"/>
<path d="M395.338 241.715L377.379 268.162L381.915 277.977L394.54 243.719L395.338 241.715Z" fill="#E53E5A"/>
<path d="M394.538 243.717L350.057 346.61C350.057 346.61 366.174 373.802 382.709 362.329C399.247 350.854 452.099 253.435 449.49 217.894C399.02 232.308 394.538 243.717 394.538 243.717Z" fill="#F4CDC1"/>
<path d="M341.959 229.023C341.959 229.023 344.178 317.492 343.64 337.013C343.403 345.792 355.867 367.1 363.851 368.512C371.844 369.923 398.636 361.929 396.761 331.377C394.876 300.825 372.059 256.16 372.059 256.16L341.959 229.023Z" fill="#F4CDC1"/>
<path d="M392.847 301.644L373.187 256.106C373.187 256.106 366.324 227.612 364.945 220.75C363.576 213.887 365.98 213.544 370.439 206.681C374.899 199.819 387.255 168.921 388.634 164.806C390.003 160.692 387.945 157.598 385.889 152.794C383.83 147.989 375.934 139.404 370.439 136.323C367.347 142.16 373.53 144.908 377.301 150.735C381.072 156.564 376.957 159.323 373.187 165.839C369.749 158.287 355.68 135.633 348.818 131.852C343.809 134.523 349.195 140.114 352.653 148.625C352.718 148.775 352.524 148.917 352.405 148.808C348.332 144.939 339.564 141.806 339.564 141.806C339.564 141.806 337.507 144.898 338.53 148.669C339.553 152.439 342.645 151.414 341.276 152.783C339.909 154.152 341.276 156.564 346.426 164.796C351.576 173.037 348.484 184.358 341.622 194.658C334.759 204.956 339.93 216.323 340.253 217.658C341.028 220.964 341.622 225.275 342.074 230.208" fill="#F4CDC1"/>
<path d="M392.851 302.723C392.43 302.723 392.032 302.475 391.859 302.075L372.134 256.354C372.069 256.075 365.249 227.763 363.882 220.954C362.751 215.31 364.065 213.575 366.661 210.106C367.49 208.998 368.438 207.738 369.526 206.077C373.901 199.354 386.301 168.35 387.603 164.44C388.615 161.413 387.484 158.925 385.911 155.488C385.578 154.767 385.234 154 384.888 153.194C382.992 148.765 376.001 141.171 370.926 137.852C370.032 140.502 371.574 142.356 374.342 145.371C375.603 146.74 377.024 148.292 378.209 150.133C381.528 155.25 379.34 158.46 376.592 162.513C375.828 163.642 374.955 164.925 374.126 166.358L373.082 168.167L372.219 166.26C368.836 158.817 355.488 137.485 348.832 133.09C347.011 134.415 347.884 136.548 350.534 141.654C351.536 143.583 352.667 145.771 353.657 148.194C353.884 148.744 353.69 149.358 353.205 149.681C352.719 150.015 352.084 149.96 351.665 149.563C348.54 146.59 342.346 144.015 340.061 143.121C339.599 144.154 338.963 146.138 339.567 148.356C340.009 149.994 340.849 150.413 341.517 150.758C341.959 150.985 342.561 151.285 342.669 152.008C342.788 152.752 342.238 153.31 342.024 153.517C341.215 154.325 343.284 157.74 347.324 164.202C352.203 172.013 350.446 183.325 342.496 195.24C338.63 201.046 338.124 208.21 340.999 216.527C341.14 216.938 341.236 217.227 341.28 217.39C342.024 220.556 342.649 224.833 343.121 230.09C343.176 230.683 342.744 231.21 342.153 231.265C341.559 231.329 341.032 230.877 340.978 230.296C340.503 225.135 339.901 220.967 339.178 217.885C339.147 217.767 339.072 217.54 338.963 217.227C335.851 208.244 336.442 200.433 340.709 194.033C348.163 182.85 349.909 172.39 345.492 165.333C340.601 157.502 338.715 154.485 340.105 152.45C339.276 151.985 338.059 151.071 337.465 148.917C336.324 144.715 338.542 141.31 338.64 141.171L339.103 140.471L339.901 140.75C340.192 140.858 345.792 142.873 350.167 145.706C349.64 144.617 349.101 143.594 348.605 142.625C345.999 137.604 343.757 133.283 348.303 130.85L348.821 130.581L349.328 130.86C356.201 134.642 368.89 154.927 373.286 163.546C373.813 162.727 374.319 161.973 374.805 161.273C377.465 157.352 378.932 155.196 376.399 151.275C375.311 149.583 374.007 148.173 372.747 146.804C369.774 143.573 366.974 140.513 369.484 135.763L370.001 134.781L370.959 135.321C376.486 138.423 384.663 147.16 386.871 152.31C387.215 153.106 387.549 153.85 387.874 154.56C389.576 158.3 390.922 161.252 389.651 165.085C388.303 169.138 375.905 200.185 371.336 207.208C370.215 208.933 369.203 210.279 368.394 211.356C365.907 214.675 365.065 215.783 366.003 220.481C367.317 227.052 373.782 253.931 374.213 255.708L393.84 301.171C394.078 301.721 393.83 302.356 393.28 302.581C393.14 302.69 392.99 302.723 392.851 302.723Z" fill="#44292C"/>
<path d="M366.638 175.311C366.574 175.311 366.509 175.298 366.445 175.288C365.861 175.181 365.463 174.621 365.572 174.038C365.582 173.963 366.918 166.163 363.19 161.542C359.195 156.575 351.955 149.454 351.878 149.379C351.459 148.959 351.449 148.281 351.868 147.85C352.288 147.429 352.967 147.419 353.386 147.84C353.688 148.129 360.788 155.121 364.872 160.186C369.213 165.581 367.757 174.061 367.692 174.415C367.607 174.944 367.155 175.311 366.638 175.311Z" fill="#44292C"/>
<path d="M358 182.377C357.786 179.156 357.558 176.031 357.073 173.058C356.536 170.086 355.771 167.294 354.111 165.204C353.217 163.944 352.258 162.748 351.3 161.552C350.363 160.336 349.35 159.181 348.358 158.019C347.336 156.888 346.313 155.756 345.169 154.765C344.05 153.752 342.865 152.838 341.323 152.461L341.292 152.45C341.238 152.438 341.206 152.386 341.217 152.321C341.227 152.277 341.271 152.244 341.313 152.244C342.973 152.179 344.469 152.956 345.794 153.806C347.131 154.679 348.359 155.702 349.523 156.779C351.838 158.967 353.917 161.369 355.836 163.9C356.783 165.194 357.504 166.669 357.956 168.2C358.388 169.74 358.646 171.323 358.765 172.906C358.981 176.086 358.765 179.273 358.204 182.408C358.194 182.463 358.14 182.506 358.088 182.496C358.033 182.483 358 182.442 358 182.398V182.377Z" fill="#44292C"/>
<path d="M376.473 174.523C376.021 174.523 375.6 174.244 375.45 173.79L374.276 170.321C374.19 170.073 374.092 169.838 373.973 169.611L371.453 164.623C371.184 164.094 371.4 163.448 371.928 163.179C372.455 162.911 373.103 163.125 373.371 163.652L375.892 168.642C376.053 168.965 376.194 169.298 376.313 169.631L377.486 173.1C377.68 173.661 377.38 174.275 376.807 174.469C376.711 174.513 376.592 174.523 376.473 174.523Z" fill="#44292C"/>
<path d="M399.466 252.756L393.272 301.331L381.486 273.85L394.543 243.719L399.466 252.756Z" fill="#EDB9AB"/>
<path d="M452.369 247.273C452.369 247.273 454.805 215.298 447.738 205.615C440.671 195.929 437.009 201.423 437.009 201.423L394.067 231.275L394.54 243.719L452.369 247.273Z" fill="#FE596F"/>
<path d="M252.032 266.115C252.032 266.115 247.023 276.996 245.278 281.25C240.386 293.144 242.034 316.112 242.573 318.008C235.28 288.275 235.744 283.814 235.744 283.814L242.057 266.535L252.032 266.115Z" fill="#EDB9AB"/>
<path d="M186.555 194.496C186.555 194.496 186.684 180.523 186.813 177.141C186.945 173.758 190.726 171.15 192.157 169.848C193.591 168.543 216.526 169.977 218.486 170.106C220.436 170.235 219.791 173.758 215.88 174.931C211.97 176.106 200.657 177.302 200.657 177.302" fill="#F4CDC1"/>
<path d="M230.504 250.494C229.976 250.494 229.514 250.096 229.437 249.556C228.737 244.267 229.243 223.971 229.287 222.334C229.179 221.342 228.156 212.348 228.156 209.988C228.156 207.769 227.068 203.233 224.741 200.519C224.116 199.786 222.876 198.838 221.358 197.825C220.712 197.469 219.904 196.996 218.901 196.371C218.481 196.113 217.943 195.767 217.308 195.358C213.516 193.204 209.616 191.329 208.785 191.286C207.504 191.394 201.126 192.946 198.779 193.527L196.333 194.142L197.583 191.954C197.614 191.89 198.476 190.381 199.533 189.088C201.008 187.256 203.249 184.586 203.249 184.586L203.872 183.842L204.681 184.381C204.789 184.456 214.247 190.813 218.664 193.677C219.818 194.346 220.949 195.046 221.972 195.713C222.349 195.929 222.672 196.102 222.941 196.252C222.833 195.423 222.533 194.129 221.756 192.288C220.301 188.798 215.399 184.317 207.956 179.663C204.81 177.702 201.524 178.036 199.326 178.661C197.947 179.058 196.71 179.963 195.847 181.213L187.51 191.577C187.133 192.04 186.454 192.115 185.991 191.738C185.526 191.361 185.451 190.683 185.829 190.219L194.124 179.921C195.212 178.325 196.87 177.108 198.745 176.581C201.364 175.838 205.295 175.45 209.11 177.831C214.647 181.288 221.681 186.461 223.76 191.448C225.312 195.165 225.237 197.115 225.074 197.911C225.635 198.365 226.076 198.773 226.379 199.119C229.093 202.286 230.31 207.381 230.31 209.988C230.31 212.304 231.42 222.065 231.431 222.161L231.441 222.238V222.313C231.441 222.527 230.891 244.052 231.57 249.267C231.645 249.858 231.237 250.398 230.643 250.473C230.601 250.483 230.558 250.494 230.504 250.494ZM204.293 186.696C203.529 187.623 202.204 189.217 201.222 190.436C201.126 190.554 201.039 190.661 200.954 190.779C203.281 190.219 206.481 189.475 208.064 189.217C206.47 188.163 205.112 187.246 204.293 186.696Z" fill="#44292C"/>
<path d="M188.336 197.523C187.905 197.523 187.494 197.265 187.334 196.833C187.117 196.283 187.388 195.661 187.948 195.444L200.584 190.521C201.134 190.306 201.759 190.575 201.973 191.136C202.19 191.683 201.919 192.308 201.361 192.525L188.723 197.448C188.594 197.502 188.465 197.523 188.336 197.523Z" fill="#44292C"/>
<path d="M204.056 215.902C204.056 215.902 205.036 227.956 211.727 227.483C217.533 227.073 217.544 219.048 217.544 219.048L216.963 213.564L206.944 209.696L203.506 211.839L204.056 215.902Z" fill="white"/>
<path d="M204.055 215.902L207.717 213.985L217.532 219.048L216.896 213.575L205.648 210.14L203.548 211.754L204.055 215.902Z" fill="#E8E6E6"/>
<path d="M224.757 218.433C222.98 218.433 220.944 217.788 218.692 216.517C212.54 213.038 208.49 211.529 207.284 211.119C206.54 211.475 204.742 212.379 202.663 213.823C199.797 215.804 196.565 217.702 196.532 217.723C196.015 218.025 195.359 217.852 195.057 217.336C194.755 216.819 194.928 216.161 195.444 215.858C195.476 215.838 198.634 213.986 201.434 212.046C204.353 210.021 206.703 209.008 206.799 208.965L207.155 208.813L207.532 208.921C207.715 208.975 212.142 210.321 219.759 214.631C222.324 216.086 224.509 216.581 226.094 216.075C226.836 215.838 227.322 215.406 227.601 215.073C226.901 214.179 225.576 212.498 224.822 211.669C224.413 211.217 223.594 210.181 222.657 208.986C221.44 207.446 219.426 204.902 218.865 204.419C218.661 204.342 218.326 204.181 217.647 203.879C215.309 202.813 209.115 199.979 206.863 199.904C206.842 199.904 206.809 199.904 206.778 199.904C204.526 199.904 195.607 202.813 190.08 204.796C189.519 204.99 188.905 204.708 188.701 204.148C188.497 203.59 188.786 202.975 189.347 202.771C190.811 202.242 203.751 197.598 206.928 197.75C209.288 197.836 214.126 199.904 218.53 201.919C219.124 202.188 219.532 202.381 219.684 202.436C220.265 202.629 220.869 203.265 224.338 207.661C225.211 208.771 226.04 209.827 226.405 210.225C227.526 211.452 229.669 214.254 229.767 214.373L230.155 214.879L229.907 215.461C229.876 215.536 229.067 217.356 226.815 218.111C226.169 218.327 225.49 218.433 224.757 218.433Z" fill="#44292C"/>
<path d="M277.213 207.617C277.213 207.617 266.915 207.304 258.803 216.979C250.69 226.654 239.896 266.525 239.896 266.525L271.903 271.577L295.926 266.902C295.926 266.889 279.078 211.679 277.213 207.617Z" fill="#FE596F"/>
<path d="M229.486 247.81C229.486 247.81 234.582 281.337 235.799 287.164C237.018 292.994 239.862 310.952 242.63 321.069C245.389 331.194 247.262 350.606 244.816 355.208C242.359 359.808 237.005 364.44 230.176 366.346C228.022 366.95 212.099 367.035 207.187 358.137C202.274 349.239 199.774 340.06 202.814 319.829C208.199 283.9 204.02 251.71 205.549 246.498C207.078 241.294 229.486 247.81 229.486 247.81Z" fill="#F4CDC1"/>
<path d="M241.943 318.052C241.478 318.052 241.047 317.75 240.908 317.288C237.643 306.386 229.768 251.883 229.435 249.569C229.349 248.975 229.758 248.438 230.351 248.35C230.933 248.275 231.483 248.673 231.568 249.267C231.653 249.827 239.755 305.933 242.976 316.673C243.149 317.244 242.826 317.848 242.255 318.019C242.158 318.042 242.049 318.052 241.943 318.052Z" fill="#44292C"/>
<path d="M212.379 159.409C211.981 159.409 211.594 159.181 211.411 158.794C211.15 158.256 211.377 157.611 211.917 157.363C220.523 153.246 225.782 145.888 227.99 134.867C228.109 134.286 228.669 133.898 229.261 134.027C229.842 134.146 230.219 134.717 230.1 135.298C227.752 147.031 222.107 154.884 212.842 159.313C212.692 159.377 212.542 159.409 212.379 159.409Z" fill="#B6B6B6"/>
<path d="M229.249 103.82C228.753 103.82 228.311 103.475 228.192 102.968C224.411 85.6887 208.963 78.837 208.811 78.7724C208.263 78.5354 208.015 77.8997 208.253 77.3612C208.488 76.8118 209.124 76.5639 209.663 76.801C210.342 77.0918 226.276 84.1266 230.305 102.516C230.434 103.098 230.067 103.669 229.486 103.798C229.398 103.809 229.324 103.82 229.249 103.82Z" fill="#B6B6B6"/>
<path d="M211.582 224.046C210.267 224.046 209.115 223.573 208.167 222.646C205.355 219.887 205.386 213.833 205.386 213.575C205.399 212.983 205.872 212.508 206.465 212.508H206.476C207.068 212.519 207.553 213.004 207.543 213.596C207.53 215.094 207.886 219.35 209.676 221.104C210.234 221.654 210.882 221.902 211.668 221.881C212.282 221.871 212.755 222.333 212.778 222.925C212.799 223.519 212.326 224.015 211.732 224.035C211.688 224.046 211.636 224.046 211.582 224.046Z" fill="#B6B6B6"/>
</g>
<defs>
<clipPath id="clip0_146_1234">
<rect width="567" height="384" fill="white"/>
</clipPath>
</defs>
</svg>
