<?xml version="1.0" encoding="UTF-8"?>
<svg width="102px" height="21px" viewBox="0 0 102 21" version="1.1" xmlns="http://www.w3.org/2000/svg" xmlns:xlink="http://www.w3.org/1999/xlink">
    <title>logo</title>
    <g id="Page-1" stroke="none" stroke-width="1" fill="none" fill-rule="evenodd">
        <g id="Login-Copy-9" transform="translate(-670.000000, -64.000000)" fill-rule="nonzero">
            <g id="Group-5" transform="translate(480.000000, 64.000000)">
                <g id="logo" transform="translate(190.000000, 0.000000)">
                    <g id="Group" transform="translate(20.644068, 0.000000)" fill="#000000">
                        <path d="M10.1465593,0.273 C4.66164407,0.273 0.0544576271,4.89264407 0.0544576271,10.6281356 C0.0544576271,16.2084407 4.66128814,20.8120678 10.1465593,20.8120678 C15.8507288,20.8120678 20.254322,16.2080847 20.254322,10.6281356 C20.254322,4.89228814 15.8507288,0.273 10.1465593,0.273 Z M10.1465593,17.0975593 C6.68333898,17.0975593 3.83089831,14.2351525 3.83089831,10.6295593 C3.83089831,6.91327119 6.68333898,3.98715254 10.1465593,3.98715254 C13.7663898,3.98715254 16.6188305,6.91327119 16.6188305,10.6295593 C16.6184746,14.2351525 13.7663898,17.0975593 10.1465593,17.0975593 Z" id="Shape"></path>
                        <polygon id="Path" points="73.5754576 10.4718814 80.0477288 0.834305085 75.957 0.834305085 71.3345085 7.72942373 67.0871695 0.834305085 62.5429831 0.834305085 69.1722203 10.7854576 62.6839322 20.4547119 66.7896102 20.4547119 69.9396102 15.8005424 71.1778983 13.8254746 75.8007458 20.4547119 80.3449322 20.4547119"></polygon>
                        <path d="M53.6731525,11.7567966 C56.0546949,10.9264068 57.4652542,9.01469492 57.4652542,6.63244068 C57.309,3.05959322 54.9737288,0.677694915 51.5105085,0.677694915 L44.5680508,0.677694915 L44.5680508,20.4547119 L48.1882373,20.4547119 L48.1882373,11.7567966 L55.8393559,20.4547119 L60.2272881,20.4547119 L52.9050508,12.0703729 L53.6731525,11.7567966 Z M48.0309153,9.17130508 L48.0309153,3.88998305 L50.9929831,3.88998305 C52.5911186,3.88998305 53.6727966,5.03430508 53.6727966,6.63244068 C53.6727966,8.24659322 52.5911186,9.17130508 50.9929831,9.17130508 L48.0309153,9.17130508 Z" id="Shape"></path>
                        <path d="M35.0835254,9.7009322 C33.1700339,8.85772881 32.4464237,8.59469492 30.9760678,8.01452542 C29.494678,7.43008475 28.6895593,6.76805085 28.6895593,5.93730508 C28.6895593,4.9029661 29.6156949,3.85866102 31.6210169,3.88998305 C33.6900508,3.92130508 34.7137119,5.00440678 35.0586102,5.33364407 L38.015339,3.05959322 L37.9971864,3.06422034 C36.7119153,1.51271186 34.6457288,0.207864407 31.6210169,0.270152542 C27.515339,0.348813559 25.026661,3.11440678 24.8853559,5.99816949 C24.7753729,7.20477966 25.3135424,8.52635593 26.2208136,9.49876271 C27.0558305,10.3932203 28.4261695,11.0968983 30.4613898,11.8197966 C32.796661,12.6491186 35.2184237,13.0523898 35.0988305,15.2392373 C35.0447288,16.2308644 33.9559322,17.6076102 31.2437288,17.3495593 C29.0583051,17.1416949 27.5797627,15.3467288 27.1565593,14.8608814 L24.2987797,16.8836441 C25.1334407,18.4429831 28.1549492,20.8900169 31.8662542,20.8900169 C35.973,20.8900169 38.9073051,18.2621695 38.9073051,14.5971356 C38.907661,12.3718475 37.4123898,10.7270847 35.0835254,9.7009322 Z" id="Path"></path>
                    </g>
                    <path d="M14.4629492,15.2641525 C13.3638305,16.2194746 11.9312034,16.7992881 10.3640339,16.7992881 C6.91398305,16.7992881 4.10710169,13.9924068 4.10710169,10.5423559 C4.10710169,7.09266102 6.91398305,4.28542373 10.3640339,4.28542373 C11.7564407,4.28542373 13.0431356,4.74279661 14.0838814,5.51516949 L17.3691356,3.04535593 L16.8957458,2.62535593 C15.1196441,1.15713559 12.8427458,0.273711864 10.363678,0.273711864 C4.70150847,0.273711864 0.0946779661,4.88018644 0.0946779661,10.5427119 C0.0946779661,16.2052373 4.70115254,20.8117119 10.363678,20.8117119 C12.9683898,20.8117119 15.3488644,19.834678 17.1612712,18.2304915 L17.6161525,17.7930508 L14.4629492,15.2641525 Z" id="Path" fill="#010101"></path>
                </g>
            </g>
        </g>
    </g>
</svg>